# Rhino

mtllib t_17.mtl
usemtl diffuse_0
v 0.5 0.34999999403953552 -0.34179621934890747
v 0.5 0.34999999403953552 -0.5
v 0.55000001192092896 0.34999999403953552 -0.34179621934890747
v 0.55000001192092896 0.34999999403953552 -0.5
v 0.55000001192092896 0.34999999403953552 -0.34179621934890747
v 0.55000001192092896 0.34999999403953552 -0.5
v 0.55000001192092896 0.27140852808952332 -0.34179621934890747
v 0.55000001192092896 0.27140852808952332 -0.5
v 0.55000001192092896 0.27140852808952332 -0.34179621934890747
v 0.55000001192092896 0.27140852808952332 -0.5
v 0.5 0.27140852808952332 -0.34179621934890747
v 0.5 0.27140852808952332 -0.5
v 0.5 0.27140852808952332 -0.34179621934890747
v 0.5 0.27140852808952332 -0.5
v 0.5 0.34999999403953552 -0.34179621934890747
v 0.5 0.34999999403953552 -0.5
v 0.5 0.34999999403953552 -0.34179621934890747
v 0.55000001192092896 0.34999999403953552 -0.34179621934890747
v 0.55000001192092896 0.27140852808952332 -0.34179621934890747
v 0.5 0.27140852808952332 -0.34179621934890747
v 0.5 0.34999999403953552 -0.5
v 0.55000001192092896 0.34999999403953552 -0.5
v 0.55000001192092896 0.27140852808952332 -0.5
v 0.5 0.27140852808952332 -0.5
vt 0 0
vt 0 0.8063538670539856
vt 0.19441412389278412 0
vt 0.19441412389278412 0.8063538670539856
vt 0.19441412389278412 0
vt 0.19441412389278412 0.8063538670539856
vt 0.5 0
vt 0.5 0.8063538670539856
vt 0.5 0
vt 0.5 0.8063538670539856
vt 0.69441413879394531 0
vt 0.69441413879394531 0.8063538670539856
vt 0.69441413879394531 0
vt 0.69441413879394531 0.8063538670539856
vt 1 0
vt 1 0.8063538670539856
vt 0.30558586120605469 1
vt 0.30558586120605469 0.80635464191436768
vt 0 0.80635464191436768
vt 0 1
vt 1 0.80635464191436768
vt 1 1
vt 0.69441413879394531 1
vt 0.69441413879394531 0.80635464191436768
vn 0 1 0
vn 0 1 0
vn 0 1 0
vn 0 1 0
vn 1 0 0
vn 1 0 0
vn 1 0 0
vn 1 0 0
vn 0 -1 0
vn 0 -1 0
vn 0 -1 0
vn 0 -1 0
vn -1 0 0
vn -1 0 0
vn -1 0 0
vn -1 0 0
vn 0 0 1
vn 0 0 1
vn 0 0 1
vn 0 0 1
vn 0 0 -1
vn 0 0 -1
vn 0 0 -1
vn 0 0 -1
f 1/1/1 3/3/3 4/4/4 2/2/2
f 5/5/5 7/7/7 8/8/8 6/6/6
f 9/9/9 11/11/11 12/12/12 10/10/10
f 13/13/13 15/15/15 16/16/16 14/14/14
f 18/18/18 17/17/17 20/20/20
f 20/20/20 19/19/19 18/18/18
f 22/22/22 24/24/24 21/21/21
f 24/24/24 22/22/22 23/23/23
usemtl diffuse_0
v 0.5 0.27140852808952332 -0.5
v 0.5 0.27140852808952332 0.16160361468791962
v 0.5 0.16581182181835175 -0.5
v 0.5 0.16581182181835175 0.16160361468791962
v 0.5 0.16581182181835175 -0.5
v 0.5 0.16581182181835175 0.16160361468791962
v 0.55000001192092896 0.16581182181835175 -0.5
v 0.55000001192092896 0.16581182181835175 0.16160361468791962
v 0.55000001192092896 0.16581182181835175 -0.5
v 0.55000001192092896 0.16581182181835175 0.16160361468791962
v 0.55000001192092896 0.27140852808952332 -0.5
v 0.55000001192092896 0.27140852808952332 0.16160361468791962
v 0.55000001192092896 0.27140852808952332 -0.5
v 0.55000001192092896 0.27140852808952332 0.16160361468791962
v 0.5 0.27140852808952332 -0.5
v 0.5 0.27140852808952332 0.16160361468791962
v 0.5 0.27140852808952332 -0.5
v 0.5 0.16581182181835175 -0.5
v 0.55000001192092896 0.16581182181835175 -0.5
v 0.55000001192092896 0.27140852808952332 -0.5
v 0.5 0.27140852808952332 0.16160361468791962
v 0.5 0.16581182181835175 0.16160361468791962
v 0.55000001192092896 0.16581182181835175 0.16160361468791962
v 0.55000001192092896 0.27140852808952332 0.16160361468791962
vt 0 0
vt 0 1
vt 0.29280063509941101 0
vt 0.29280063509941101 1
vt 0.29280063509941101 0
vt 0.29280063509941101 1
vt 0.43920096755027771 0
vt 0.43920096755027771 1
vt 0.43920096755027771 0
vt 0.43920096755027771 1
vt 0.73200160264968872 0
vt 0.73200160264968872 1
vt 0.73200160264968872 0
vt 0.73200160264968872 1
vt 0.87840193510055542 0
vt 0.87840193510055542 1
vt 1 0.15960720181465149
vt 1 0
vt 0.87840282917022705 0
vt 0.87840282917022705 0.15960720181465149
vt 1 0.84039276838302612
vt 1 1
vt 0.87840282917022705 1
vt 0.87840282917022705 0.84039276838302612
vn -1 0 0
vn -1 0 0
vn -1 0 0
vn -1 0 0
vn 0 -1 0
vn 0 -1 0
vn 0 -1 0
vn 0 -1 0
vn 1 0 0
vn 1 0 0
vn 1 0 0
vn 1 0 0
vn 0 1 0
vn 0 1 0
vn 0 1 0
vn 0 1 0
vn 0 0 -1
vn 0 0 -1
vn 0 0 -1
vn 0 0 -1
vn 0 0 1
vn 0 0 1
vn 0 0 1
vn 0 0 1
f 25/25/25 27/27/27 28/28/28 26/26/26
f 29/29/29 31/31/31 32/32/32 30/30/30
f 33/33/33 35/35/35 36/36/36 34/34/34
f 37/37/37 39/39/39 40/40/40 38/38/38
f 42/42/42 41/41/41 44/44/44
f 44/44/44 43/43/43 42/42/42
f 46/46/46 48/48/48 45/45/45
f 48/48/48 46/46/46 47/47/47
usemtl diffuse_0
v 0.5 0.11308430135250092 -0.24760109186172485
v 0.5 0.11308430135250092 -0.5
v 0.55000001192092896 0.11308430135250092 -0.24760109186172485
v 0.55000001192092896 0.11308430135250092 -0.5
v 0.55000001192092896 0.11308430135250092 -0.24760109186172485
v 0.55000001192092896 0.11308430135250092 -0.5
v 0.55000001192092896 0.063224799931049347 -0.24760109186172485
v 0.55000001192092896 0.063224799931049347 -0.5
v 0.55000001192092896 0.063224799931049347 -0.24760109186172485
v 0.55000001192092896 0.063224799931049347 -0.5
v 0.5 0.063224799931049347 -0.24760109186172485
v 0.5 0.063224799931049347 -0.5
v 0.5 0.063224799931049347 -0.24760109186172485
v 0.5 0.063224799931049347 -0.5
v 0.5 0.11308430135250092 -0.24760109186172485
v 0.5 0.11308430135250092 -0.5
v 0.5 0.11308430135250092 -0.24760109186172485
v 0.55000001192092896 0.11308430135250092 -0.24760109186172485
v 0.55000001192092896 0.063224799931049347 -0.24760109186172485
v 0.5 0.063224799931049347 -0.24760109186172485
v 0.5 0.11308430135250092 -0.5
v 0.55000001192092896 0.11308430135250092 -0.5
v 0.55000001192092896 0.063224799931049347 -0.5
v 0.5 0.063224799931049347 -0.5
vt 0 0
vt 0 1
vt 0.1620420515537262 0
vt 0.1620420515537262 1
vt 0.1620420515537262 0
vt 0.1620420515537262 1
vt 0.41674453020095825 0
vt 0.41674453020095825 1
vt 0.41674453020095825 0
vt 0.41674453020095825 1
vt 0.57878655195236206 0
vt 0.57878655195236206 1
vt 0.57878655195236206 0
vt 0.57878655195236206 1
vt 0.8334890604019165 0
vt 0.8334890604019165 1
vt 1 0.19809910655021667
vt 1 0
vt 0.83348989486694336 0
vt 0.83348989486694336 0.19809910655021667
vt 1 0.80190086364746094
vt 1 1
vt 0.83348989486694336 1
vt 0.83348989486694336 0.80190086364746094
vn 0 1 0
vn 0 1 0
vn 0 1 0
vn 0 1 0
vn 1 0 0
vn 1 0 0
vn 1 0 0
vn 1 0 0
vn 0 -1 0
vn 0 -1 0
vn 0 -1 0
vn 0 -1 0
vn -1 0 0
vn -1 0 0
vn -1 0 0
vn -1 0 0
vn 0 0 1
vn 0 0 1
vn 0 0 1
vn 0 0 1
vn 0 0 -1
vn 0 0 -1
vn 0 0 -1
vn 0 0 -1
f 49/49/49 51/51/51 52/52/52 50/50/50
f 53/53/53 55/55/55 56/56/56 54/54/54
f 57/57/57 59/59/59 60/60/60 58/58/58
f 61/61/61 63/63/63 64/64/64 62/62/62
f 66/66/66 65/65/65 68/68/68
f 68/68/68 67/67/67 66/66/66
f 70/70/70 72/72/72 69/69/69
f 72/72/72 70/70/70 71/71/71
usemtl diffuse_0
v 0.5 0.025892280042171478 -0.5
v 0.5 0.025892280042171478 -0.10000000149011612
v 0.5 -0.054107721894979477 -0.5
v 0.5 -0.054107721894979477 -0.10000000149011612
v 0.5 -0.054107721894979477 -0.5
v 0.5 -0.054107721894979477 -0.10000000149011612
v 0.55000001192092896 -0.054107721894979477 -0.5
v 0.55000001192092896 -0.054107721894979477 -0.10000000149011612
v 0.55000001192092896 -0.054107721894979477 -0.5
v 0.55000001192092896 -0.054107721894979477 -0.10000000149011612
v 0.55000001192092896 0.025892280042171478 -0.5
v 0.55000001192092896 0.025892280042171478 -0.10000000149011612
v 0.55000001192092896 0.025892280042171478 -0.5
v 0.55000001192092896 0.025892280042171478 -0.10000000149011612
v 0.5 0.025892280042171478 -0.5
v 0.5 0.025892280042171478 -0.10000000149011612
v 0.5 0.025892280042171478 -0.5
v 0.5 -0.054107721894979477 -0.5
v 0.55000001192092896 -0.054107721894979477 -0.5
v 0.55000001192092896 0.025892280042171478 -0.5
v 0.5 0.025892280042171478 -0.10000000149011612
v 0.5 -0.054107721894979477 -0.10000000149011612
v 0.55000001192092896 -0.054107721894979477 -0.10000000149011612
v 0.55000001192092896 0.025892280042171478 -0.10000000149011612
vt 0 0
vt 0 1
vt 0.28703677654266357 0
vt 0.28703677654266357 1
vt 0.28703677654266357 0
vt 0.28703677654266357 1
vt 0.43055519461631775 0
vt 0.43055519461631775 1
vt 0.43055519461631775 0
vt 0.43055519461631775 1
vt 0.71759200096130371 0
vt 0.71759200096130371 1
vt 0.71759200096130371 0
vt 0.71759200096130371 1
vt 0.8611103892326355 0
vt 0.8611103892326355 1
vt 1 0.20000000298023224
vt 1 0
vt 0.86111122369766235 0
vt 0.86111122369766235 0.20000000298023224
vt 1 0.80000001192092896
vt 1 1
vt 0.86111122369766235 1
vt 0.86111122369766235 0.80000001192092896
vn -1 0 0
vn -1 0 0
vn -1 0 0
vn -1 0 0
vn 0 -1 0
vn 0 -1 0
vn 0 -1 0
vn 0 -1 0
vn 1 0 0
vn 1 0 0
vn 1 0 0
vn 1 0 0
vn 0 1 0
vn 0 1 0
vn 0 1 0
vn 0 1 0
vn 0 0 -1
vn 0 0 -1
vn 0 0 -1
vn 0 0 -1
vn 0 0 1
vn 0 0 1
vn 0 0 1
vn 0 0 1
f 73/73/73 75/75/75 76/76/76 74/74/74
f 77/77/77 79/79/79 80/80/80 78/78/78
f 81/81/81 83/83/83 84/84/84 82/82/82
f 85/85/85 87/87/87 88/88/88 86/86/86
f 90/90/90 89/89/89 92/92/92
f 92/92/92 91/91/91 90/90/90
f 94/94/94 96/96/96 93/93/93
f 96/96/96 94/94/94 95/95/95
usemtl diffuse_0
v 0.5 -0.13692708313465118 -0.5
v 0.5 -0.13692708313465118 -0.023237902671098709
v 0.5 -0.21692708134651184 -0.5
v 0.5 -0.21692708134651184 -0.023237902671098709
v 0.5 -0.21692708134651184 -0.5
v 0.5 -0.21692708134651184 -0.023237902671098709
v 0.55000001192092896 -0.21692708134651184 -0.5
v 0.55000001192092896 -0.21692708134651184 -0.023237902671098709
v 0.55000001192092896 -0.21692708134651184 -0.5
v 0.55000001192092896 -0.21692708134651184 -0.023237902671098709
v 0.55000001192092896 -0.13692708313465118 -0.5
v 0.55000001192092896 -0.13692708313465118 -0.023237902671098709
v 0.55000001192092896 -0.13692708313465118 -0.5
v 0.55000001192092896 -0.13692708313465118 -0.023237902671098709
v 0.5 -0.13692708313465118 -0.5
v 0.5 -0.13692708313465118 -0.023237902671098709
v 0.5 -0.13692708313465118 -0.5
v 0.5 -0.21692708134651184 -0.5
v 0.55000001192092896 -0.21692708134651184 -0.5
v 0.55000001192092896 -0.13692708313465118 -0.5
v 0.5 -0.13692708313465118 -0.023237902671098709
v 0.5 -0.21692708134651184 -0.023237902671098709
v 0.55000001192092896 -0.21692708134651184 -0.023237902671098709
v 0.55000001192092896 -0.13692708313465118 -0.023237902671098709
vt 0 0
vt 0 1
vt 0.28703677654266357 0
vt 0.28703677654266357 1
vt 0.28703677654266357 0
vt 0.28703677654266357 1
vt 0.43055519461631775 0
vt 0.43055519461631775 1
vt 0.43055519461631775 0
vt 0.43055519461631775 1
vt 0.71759200096130371 0
vt 0.71759200096130371 1
vt 0.71759200096130371 0
vt 0.71759200096130371 1
vt 0.8611103892326355 0
vt 0.8611103892326355 1
vt 1 0.16779857873916626
vt 1 0
vt 0.86111122369766235 0
vt 0.86111122369766235 0.16779857873916626
vt 1 0.83220142126083374
vt 1 1
vt 0.86111122369766235 1
vt 0.86111122369766235 0.83220142126083374
vn -1 0 0
vn -1 0 0
vn -1 0 0
vn -1 0 0
vn 0 -1 0
vn 0 -1 0
vn 0 -1 0
vn 0 -1 0
vn 1 0 0
vn 1 0 0
vn 1 0 0
vn 1 0 0
vn 0 1 0
vn 0 1 0
vn 0 1 0
vn 0 1 0
vn 0 0 -1
vn 0 0 -1
vn 0 0 -1
vn 0 0 -1
vn 0 0 1
vn 0 0 1
vn 0 0 1
vn 0 0 1
f 97/97/97 99/99/99 100/100/100 98/98/98
f 101/101/101 103/103/103 104/104/104 102/102/102
f 105/105/105 107/107/107 108/108/108 106/106/106
f 109/109/109 111/111/111 112/112/112 110/110/110
f 114/114/114 113/113/113 116/116/116
f 116/116/116 115/115/115 114/114/114
f 118/118/118 120/120/120 117/117/117
f 120/120/120 118/118/118 119/119/119
usemtl diffuse_0
v 0.5 -0.21692708134651184 -0.5
v 0.5 -0.21692708134651184 0.35801950097084045
v 0.5 -0.31692707538604736 -0.5
v 0.5 -0.31692707538604736 0.35801950097084045
v 0.5 -0.31692707538604736 -0.5
v 0.5 -0.31692707538604736 0.35801950097084045
v 0.55000001192092896 -0.31692707538604736 -0.5
v 0.55000001192092896 -0.31692707538604736 0.35801950097084045
v 0.55000001192092896 -0.31692707538604736 -0.5
v 0.55000001192092896 -0.31692707538604736 0.35801950097084045
v 0.55000001192092896 -0.21692708134651184 -0.5
v 0.55000001192092896 -0.21692708134651184 0.35801950097084045
v 0.55000001192092896 -0.21692708134651184 -0.5
v 0.55000001192092896 -0.21692708134651184 0.35801950097084045
v 0.5 -0.21692708134651184 -0.5
v 0.5 -0.21692708134651184 0.35801950097084045
v 0.5 -0.21692708134651184 -0.5
v 0.5 -0.31692707538604736 -0.5
v 0.55000001192092896 -0.31692707538604736 -0.5
v 0.55000001192092896 -0.21692708134651184 -0.5
v 0.5 -0.21692708134651184 0.35801950097084045
v 0.5 -0.31692707538604736 0.35801950097084045
v 0.55000001192092896 -0.31692707538604736 0.35801950097084045
v 0.55000001192092896 -0.21692708134651184 0.35801950097084045
vt 0 0
vt 0 1
vt 0.2916664183139801 0
vt 0.2916664183139801 1
vt 0.2916664183139801 0
vt 0.2916664183139801 1
vt 0.43749961256980896 0
vt 0.43749961256980896 1
vt 0.43749961256980896 0
vt 0.43749961256980896 1
vt 0.72916603088378906 0
vt 0.72916603088378906 1
vt 0.72916603088378906 0
vt 0.72916603088378906 1
vt 0.87499922513961792 0
vt 0.87499922513961792 1
vt 1 0.11654746532440186
vt 1 0
vt 0.87500011920928955 0
vt 0.87500011920928955 0.11654746532440186
vt 1 0.88345253467559814
vt 1 1
vt 0.87500011920928955 1
vt 0.87500011920928955 0.88345253467559814
vn -1 0 0
vn -1 0 0
vn -1 0 0
vn -1 0 0
vn 0 -1 0
vn 0 -1 0
vn 0 -1 0
vn 0 -1 0
vn 1 0 0
vn 1 0 0
vn 1 0 0
vn 1 0 0
vn 0 1 0
vn 0 1 0
vn 0 1 0
vn 0 1 0
vn 0 0 -1
vn 0 0 -1
vn 0 0 -1
vn 0 0 -1
vn 0 0 1
vn 0 0 1
vn 0 0 1
vn 0 0 1
f 121/121/121 123/123/123 124/124/124 122/122/122
f 125/125/125 127/127/127 128/128/128 126/126/126
f 129/129/129 131/131/131 132/132/132 130/130/130
f 133/133/133 135/135/135 136/136/136 134/134/134
f 138/138/138 137/137/137 140/140/140
f 140/140/140 139/139/139 138/138/138
f 142/142/142 144/144/144 141/141/141
f 144/144/144 142/142/142 143/143/143
usemtl diffuse_0
v 0.5 -0.5 0.5
v 0.5 -0.5 -0.5
v 0.5 0.5 0.5
v 0.5 0.5 -0.5
vt 0 0
vt 0 1
vt 1 0
vt 1 1
vn -1 0 0
vn -1 0 0
vn -1 0 0
vn -1 0 0
f 148/148/148 146/146/146 145/145/145 147/147/147
usemtl diffuse_0
v 0.5 0.5 -0.5
v 0.5 0.5 0.5
v 0.5 0.34999999403953552 -0.5
v 0.5 0.34999999403953552 0.5
v 0.5 0.34999999403953552 -0.5
v 0.5 0.34999999403953552 0.5
v 0.55000001192092896 0.34999999403953552 -0.5
v 0.55000001192092896 0.34999999403953552 0.5
v 0.55000001192092896 0.34999999403953552 -0.5
v 0.55000001192092896 0.34999999403953552 0.5
v 0.55000001192092896 0.5 -0.5
v 0.55000001192092896 0.5 0.5
v 0.55000001192092896 0.5 -0.5
v 0.55000001192092896 0.5 0.5
v 0.5 0.5 -0.5
v 0.5 0.5 0.5
v 0.5 0.5 -0.5
v 0.5 0.34999999403953552 -0.5
v 0.55000001192092896 0.34999999403953552 -0.5
v 0.55000001192092896 0.5 -0.5
v 0.5 0.5 0.5
v 0.5 0.34999999403953552 0.5
v 0.55000001192092896 0.34999999403953552 0.5
v 0.55000001192092896 0.5 0.5
vt 0 0
vt 0 1
vt 0.29999974370002747 0
vt 0.29999974370002747 1
vt 0.29999974370002747 0
vt 0.29999974370002747 1
vt 0.44999960064888 0
vt 0.44999960064888 1
vt 0.44999960064888 0
vt 0.44999960064888 1
vt 0.74999934434890747 0
vt 0.74999934434890747 1
vt 0.74999934434890747 0
vt 0.74999934434890747 1
vt 0.89999920129776001 0
vt 0.89999920129776001 1
vt 1 0.15000000596046448
vt 1 0
vt 0.90000009536743164 0
vt 0.90000009536743164 0.15000000596046448
vt 1 0.85000002384185791
vt 1 1
vt 0.90000009536743164 1
vt 0.90000009536743164 0.85000002384185791
vn -1 0 0
vn -1 0 0
vn -1 0 0
vn -1 0 0
vn 0 -1 0
vn 0 -1 0
vn 0 -1 0
vn 0 -1 0
vn 1 0 0
vn 1 0 0
vn 1 0 0
vn 1 0 0
vn 0 1 0
vn 0 1 0
vn 0 1 0
vn 0 1 0
vn 0 0 -1
vn 0 0 -1
vn 0 0 -1
vn 0 0 -1
vn 0 0 1
vn 0 0 1
vn 0 0 1
vn 0 0 1
f 149/149/149 151/151/151 152/152/152 150/150/150
f 153/153/153 155/155/155 156/156/156 154/154/154
f 157/157/157 159/159/159 160/160/160 158/158/158
f 161/161/161 163/163/163 164/164/164 162/162/162
f 166/166/166 165/165/165 168/168/168
f 168/168/168 167/167/167 166/166/166
f 170/170/170 172/172/172 169/169/169
f 172/172/172 170/170/170 171/171/171
usemtl diffuse_0
v 0.5 -0.34999999403953552 -0.5
v 0.5 -0.34999999403953552 0.5
v 0.5 -0.5 -0.5
v 0.5 -0.5 0.5
v 0.5 -0.5 -0.5
v 0.5 -0.5 0.5
v 0.55000001192092896 -0.5 -0.5
v 0.55000001192092896 -0.5 0.5
v 0.55000001192092896 -0.5 -0.5
v 0.55000001192092896 -0.5 0.5
v 0.55000001192092896 -0.34999999403953552 -0.5
v 0.55000001192092896 -0.34999999403953552 0.5
v 0.55000001192092896 -0.34999999403953552 -0.5
v 0.55000001192092896 -0.34999999403953552 0.5
v 0.5 -0.34999999403953552 -0.5
v 0.5 -0.34999999403953552 0.5
v 0.5 -0.34999999403953552 -0.5
v 0.5 -0.5 -0.5
v 0.55000001192092896 -0.5 -0.5
v 0.55000001192092896 -0.34999999403953552 -0.5
v 0.5 -0.34999999403953552 0.5
v 0.5 -0.5 0.5
v 0.55000001192092896 -0.5 0.5
v 0.55000001192092896 -0.34999999403953552 0.5
vt 0 0
vt 0 1
vt 0.29999974370002747 0
vt 0.29999974370002747 1
vt 0.29999974370002747 0
vt 0.29999974370002747 1
vt 0.44999960064888 0
vt 0.44999960064888 1
vt 0.44999960064888 0
vt 0.44999960064888 1
vt 0.74999934434890747 0
vt 0.74999934434890747 1
vt 0.74999934434890747 0
vt 0.74999934434890747 1
vt 0.89999920129776001 0
vt 0.89999920129776001 1
vt 1 0.15000000596046448
vt 1 0
vt 0.90000009536743164 0
vt 0.90000009536743164 0.15000000596046448
vt 1 0.85000002384185791
vt 1 1
vt 0.90000009536743164 1
vt 0.90000009536743164 0.85000002384185791
vn -1 0 0
vn -1 0 0
vn -1 0 0
vn -1 0 0
vn 0 -1 0
vn 0 -1 0
vn 0 -1 0
vn 0 -1 0
vn 1 0 0
vn 1 0 0
vn 1 0 0
vn 1 0 0
vn 0 1 0
vn 0 1 0
vn 0 1 0
vn 0 1 0
vn 0 0 -1
vn 0 0 -1
vn 0 0 -1
vn 0 0 -1
vn 0 0 1
vn 0 0 1
vn 0 0 1
vn 0 0 1
f 173/173/173 175/175/175 176/176/176 174/174/174
f 177/177/177 179/179/179 180/180/180 178/178/178
f 181/181/181 183/183/183 184/184/184 182/182/182
f 185/185/185 187/187/187 188/188/188 186/186/186
f 190/190/190 189/189/189 192/192/192
f 192/192/192 191/191/191 190/190/190
f 194/194/194 196/196/196 193/193/193
f 196/196/196 194/194/194 195/195/195
