# Rhino

mtllib t_18.mtl
usemtl diffuse_0
v -0.5 0.5 -0.5
v -0.5 0.40000000596046448 -0.5
v -0.44999998807907104 0.5 -0.5
v -0.44999998807907104 0.40000000596046448 -0.5
v -0.44999998807907104 0.5 -0.5
v -0.44999998807907104 0.40000000596046448 -0.5
v -0.44999998807907104 0.5 0.5
v -0.44999998807907104 0.40000000596046448 0.5
v -0.5 0.40000000596046448 0.5
v -0.5 0.5 -0.5
v -0.5 0.40000000596046448 -0.5
v -0.5 0.5 0.5
v -0.5 0.40000000596046448 -0.5
v -0.5 0.40000000596046448 0.5
v -0.44999998807907104 0.40000000596046448 -0.5
v -0.44999998807907104 0.40000000596046448 0.5
v -0.5 0.5 0.5
v -0.5 0.40000000596046448 0.5
v -0.44999998807907104 0.5 0.5
v -0.44999998807907104 0.40000000596046448 0.5
v -0.5 0.5 -0.5
v -0.5 0.5 0.5
v -0.44999998807907104 0.5 -0.5
v -0.44999998807907104 0.5 0.5
vt 0.090909093618392944 0
vt 0.090909093618392944 0.090909093618392944
vt 0.13636364042758942 0
vt 0.13636364042758942 0.090909093618392944
vt 0.090909093618392944 0.30303031206130981
vt 0.090909093618392944 0.39393940567970276
vt 0.99853515625 0.30303031206130981
vt 0.99853515625 0.39393940567970276
vt 0.090909093618392944 0.69696968793869019
vt 0.99853515625 0.60606062412261963
vt 0.99853515625 0.69696968793869019
vt 0.090909093618392944 0.60606062412261963
vt 0.045454546809196472 0
vt 0.045454546809196472 0.90762609243392944
vt 0.089444249868392944 0
vt 0.089444249868392944 0.90762609243392944
vt 0.54545456171035767 0
vt 0.54545456171035767 0.090909093618392944
vt 0.59090906381607056 0
vt 0.59090906381607056 0.090909093618392944
vt 0 0
vt 0 0.90762609243392944
vt 0.043989703059196472 0
vt 0.043989703059196472 0.90762609243392944
vn 0 0 -1
vn 0 0 -1
vn 0 0 -1
vn 0 0 -1
vn 1 0 0
vn 1 0 0
vn 1 0 0
vn 1 0 0
vn -1 0 0
vn -1 0 0
vn -1 0 0
vn -1 0 0
vn 0 -1 0
vn 0 -1 0
vn 0 -1 0
vn 0 -1 0
vn 0 0 1
vn 0 0 1
vn 0 0 1
vn 0 0 1
vn 0 1 0
vn 0 1 0
vn 0 1 0
vn 0 1 0
f 2/2/2 1/1/1 3/3/3 4/4/4
f 6/6/6 5/5/5 7/7/7 8/8/8
f 9/9/9 12/12/12 10/10/10 11/11/11
f 14/14/14 13/13/13 15/15/15 16/16/16
f 18/18/18 20/20/20 19/19/19 17/17/17
f 22/22/22 24/24/24 23/23/23 21/21/21
usemtl diffuse_0
v 0.5 0.40000000596046448 0.5
v 0.5 0.15000000596046448 0.5
v 0.5 0.15000000596046448 0.30000001192092896
v 0.5 0.40000000596046448 0.30000001192092896
v -0.5 0.15000000596046448 0.5
v -0.5 0.40000000596046448 0.5
v -0.5 0.15000000596046448 0.30000001192092896
v -0.5 0.40000000596046448 0.30000001192092896
v 0.5 0.40000000596046448 0.5
v -0.5 0.40000000596046448 0.30000001192092896
v 0.5 0.40000000596046448 0.30000001192092896
v -0.5 0.40000000596046448 0.5
v -0.5 0.15000000596046448 0.30000001192092896
v 0.5 0.15000000596046448 0.5
v 0.5 0.15000000596046448 0.30000001192092896
v -0.5 0.15000000596046448 0.5
v -0.5 0.40000000596046448 0.30000001192092896
v 0.5 0.40000000596046448 0.30000001192092896
v 0.5 0.15000000596046448 0.30000001192092896
v -0.5 0.15000000596046448 0.30000001192092896
v -0.5 0.15000000596046448 0.5
v 0.5 0.40000000596046448 0.5
v 0.5 0.15000000596046448 0.5
v -0.5 0.40000000596046448 0.5
vt 0.21592645347118378 0
vt 0 0
vt 0 0.17391304671764374
vt 0.21592645347118378 0.17391304671764374
vt 0 0.43478259444236755
vt 0.21592645347118378 0.43478259444236755
vt 0 0.6086956262588501
vt 0.21592645347118378 0.6086956262588501
vt 0.82608693838119507 0
vt 0.99853515625 0.86810034513473511
vt 0.99853515625 0
vt 0.82608693838119507 0.86810034513473511
vt 0.65217393636703491 0.86810034513473511
vt 0.82462209463119507 0
vt 0.65217393636703491 0
vt 0.82462209463119507 0.86810034513473511
vt 0.21739129722118378 0
vt 0.21739129722118378 0.86810034513473511
vt 0.43331775069236755 0.86810034513473511
vt 0.43331775069236755 0
vt 0.65070909261703491 0
vt 0.43478259444236755 0.86810034513473511
vt 0.65070909261703491 0.86810034513473511
vt 0.43478259444236755 0
vn 1 0 0
vn 1 0 0
vn 1 0 0
vn 1 0 0
vn -1 0 0
vn -1 0 0
vn -1 0 0
vn -1 0 0
vn 0 1 0
vn 0 1 0
vn 0 1 0
vn 0 1 0
vn 0 -1 0
vn 0 -1 0
vn 0 -1 0
vn 0 -1 0
vn 0 0 -1
vn 0 0 -1
vn 0 0 -1
vn 0 0 -1
vn 0 0 1
vn 0 0 1
vn 0 0 1
vn 0 0 1
f 26/26/26 27/27/27 28/28/28 25/25/25
f 29/29/29 30/30/30 32/32/32 31/31/31
f 36/36/36 33/33/33 35/35/35 34/34/34
f 37/37/37 39/39/39 38/38/38 40/40/40
f 41/41/41 42/42/42 43/43/43 44/44/44
f 48/48/48 45/45/45 47/47/47 46/46/46
