# Rhino

mtllib t_14.mtl
usemtl diffuse_0
v 0.34999999403953552 0.5 1.5
v 0.34999999403953552 0.40000000596046448 1.5
v 0.34999999403953552 0.5 -0.5
v 0.34999999403953552 0.40000000596046448 -0.5
v 0.40000000596046448 0.40000000596046448 1.5
v 0.40000000596046448 0.40000000596046448 -0.5
v 0.34999999403953552 0.40000000596046448 1.5
v 0.34999999403953552 0.40000000596046448 -0.5
v 0.5 0.34999999403953552 -0.5
v 0.40000000596046448 0.34999999403953552 -0.5
v 0.5 0.34999999403953552 1.5
v 0.40000000596046448 0.34999999403953552 1.5
v 0.40000000596046448 0.34999999403953552 1.5
v 0.40000000596046448 0.34999999403953552 -0.5
v 0.40000000596046448 0.40000000596046448 1.5
v 0.40000000596046448 0.40000000596046448 -0.5
v 0.34999999403953552 0.5 1.5
v 0.34999999403953552 0.5 -0.5
v 0.5 0.5 1.5
v 0.5 0.5 -0.5
v 0.5 0.5 1.5
v 0.5 0.5 -0.5
v 0.5 0.34999999403953552 1.5
v 0.5 0.34999999403953552 -0.5
v 0.5 0.5 -0.5
v 0.34999999403953552 0.5 -0.5
v 0.5 0.34999999403953552 -0.5
v 0.34999999403953552 0.40000000596046448 -0.5
v 0.40000000596046448 0.40000000596046448 -0.5
v 0.40000000596046448 0.34999999403953552 -0.5
v 0.5 0.34999999403953552 1.5
v 0.5 0.5 1.5
v 0.34999999403953552 0.5 1.5
v 0.34999999403953552 0.40000000596046448 1.5
v 0.40000000596046448 0.40000000596046448 1.5
v 0.40000000596046448 0.34999999403953552 1.5
vt 0.06976744532585144 0.62015503644943237
vt 0.06976744532585144 0.66666668653488159
vt 0.99853515625 0.62015503644943237
vt 0.99853515625 0.66666668653488159
vt 0.99853515625 0.31007751822471619
vt 0.06976744532585144 0.31007751822471619
vt 0.99853515625 0.3333333432674408
vt 0.06976744532585144 0.3333333432674408
vt 0.06976744532585144 0.77519381046295166
vt 0.06976744532585144 0.8217054009437561
vt 0.99853515625 0.77519381046295166
vt 0.99853515625 0.8217054009437561
vt 0.99853515625 0.23255814611911774
vt 0.06976744532585144 0.23255814611911774
vt 0.99853515625 0.25581395626068115
vt 0.06976744532585144 0.25581395626068115
vt 0 0
vt 0 0.92876774072647095
vt 0.06830260157585144 0
vt 0.06830260157585144 0.92876774072647095
vt 0.99853515625 0.38759690523147583
vt 0.06976744532585144 0.38759690523147583
vt 0.99853515625 0.45736435055732727
vt 0.06976744532585144 0.45736435055732727
vt 0.53488373756408691 0
vt 0.53488373756408691 0.06976744532585144
vt 0.60465115308761597 0
vt 0.58139532804489136 0.06976744532585144
vt 0.58139532804489136 0.046511627733707428
vt 0.60465115308761597 0.046511627733707428
vt 0.06976744532585144 0
vt 0.13953489065170288 0
vt 0.13953489065170288 0.06976744532585144
vt 0.093023255467414856 0.06976744532585144
vt 0.093023255467414856 0.046511627733707428
vt 0.06976744532585144 0.046511627733707428
vn -1 0 0
vn -1 0 0
vn -1 0 0
vn -1 0 0
vn 0 -1 0
vn 0 -1 0
vn 0 -1 0
vn 0 -1 0
vn 0 -1 0
vn 0 -1 0
vn 0 -1 0
vn 0 -1 0
vn -1 0 0
vn -1 0 0
vn -1 0 0
vn -1 0 0
vn 0 1 0
vn 0 1 0
vn 0 1 0
vn 0 1 0
vn 1 0 0
vn 1 0 0
vn 1 0 0
vn 1 0 0
vn 0 0 -1
vn 0 0 -1
vn 0 0 -1
vn 0 0 -1
vn 0 0 -1
vn 0 0 -1
vn 0 0 1
vn 0 0 1
vn 0 0 1
vn 0 0 1
vn 0 0 1
vn 0 0 1
f 2/2/2 1/1/1 3/3/3 4/4/4
f 6/6/6 5/5/5 7/7/7 8/8/8
f 10/10/10 9/9/9 11/11/11 12/12/12
f 14/14/14 13/13/13 15/15/15 16/16/16
f 18/18/18 17/17/17 19/19/19 20/20/20
f 22/22/22 21/21/21 23/23/23 24/24/24
f 28/28/28 26/26/26 29/29/29
f 25/25/25 29/29/29 26/26/26
f 30/30/30 29/29/29 27/27/27
f 25/25/25 27/27/27 29/29/29
f 36/36/36 31/31/31 35/35/35
f 32/32/32 35/35/35 31/31/31
f 34/34/34 35/35/35 33/33/33
f 32/32/32 33/33/33 35/35/35
usemtl diffuse_0
v -0.44999998807907104 0.5 1.5
v -0.44999998807907104 0.40000000596046448 1.5
v -0.5 0.5 1.5
v -0.5 0.40000000596046448 1.5
v -0.5 0.5 -0.5
v -0.5 0.40000000596046448 -0.5
v -0.44999998807907104 0.5 -0.5
v -0.44999998807907104 0.40000000596046448 -0.5
v -0.44999998807907104 0.5 -0.5
v -0.44999998807907104 0.40000000596046448 -0.5
v -0.44999998807907104 0.5 1.5
v -0.44999998807907104 0.40000000596046448 1.5
v -0.5 0.5 1.5
v -0.5 0.40000000596046448 1.5
v -0.5 0.5 -0.5
v -0.5 0.40000000596046448 -0.5
v -0.5 0.5 -0.5
v -0.5 0.5 1.5
v -0.44999998807907104 0.5 -0.5
v -0.44999998807907104 0.5 1.5
v -0.5 0.40000000596046448 -0.5
v -0.5 0.40000000596046448 1.5
v -0.44999998807907104 0.40000000596046448 -0.5
v -0.44999998807907104 0.40000000596046448 1.5
vt 0.095238097012042999 0.1587301641702652
vt 0.0476190485060215 0.1587301641702652
vt 0.095238097012042999 0.1825396865606308
vt 0.0476190485060215 0.1825396865606308
vt 0.095238097012042999 0
vt 0.0476190485060215 0
vt 0.095238097012042999 0.02380952425301075
vt 0.0476190485060215 0.02380952425301075
vt 0.0476190485060215 0.63492065668106079
vt 0.0476190485060215 0.68253970146179199
vt 0.99853515625 0.63492065668106079
vt 0.99853515625 0.68253970146179199
vt 0.0476190485060215 0.3174603283405304
vt 0.0476190485060215 0.3650793731212616
vt 0.99853515625 0.3174603283405304
vt 0.99853515625 0.3650793731212616
vt 0 0
vt 0 0.9509161114692688
vt 0.02234468050301075 0
vt 0.02234468050301075 0.9509161114692688
vt 0.02380952425301075 0
vt 0.02380952425301075 0.9509161114692688
vt 0.0461542047560215 0
vt 0.0461542047560215 0.9509161114692688
vn 0 0 1
vn 0 0 1
vn 0 0 1
vn 0 0 1
vn 0 0 -1
vn 0 0 -1
vn 0 0 -1
vn 0 0 -1
vn 1 0 0
vn 1 0 0
vn 1 0 0
vn 1 0 0
vn -1 0 0
vn -1 0 0
vn -1 0 0
vn -1 0 0
vn 0 1 0
vn 0 1 0
vn 0 1 0
vn 0 1 0
vn 0 -1 0
vn 0 -1 0
vn 0 -1 0
vn 0 -1 0
f 38/38/38 37/37/37 39/39/39 40/40/40
f 42/42/42 41/41/41 43/43/43 44/44/44
f 46/46/46 45/45/45 47/47/47 48/48/48
f 50/50/50 49/49/49 51/51/51 52/52/52
f 54/54/54 56/56/56 55/55/55 53/53/53
f 58/58/58 57/57/57 59/59/59 60/60/60
usemtl diffuse_0
v 0.5 -0.5 1.5
v 0.40000000596046448 -0.5 1.5
v 0.5 -0.44999998807907104 1.5
v 0.40000000596046448 -0.44999998807907104 1.5
v 0.5 -0.44999998807907104 -0.5
v 0.40000000596046448 -0.44999998807907104 -0.5
v 0.5 -0.5 -0.5
v 0.40000000596046448 -0.5 -0.5
v 0.5 -0.5 -0.5
v 0.40000000596046448 -0.5 -0.5
v 0.5 -0.5 1.5
v 0.40000000596046448 -0.5 1.5
v 0.5 -0.44999998807907104 1.5
v 0.40000000596046448 -0.44999998807907104 1.5
v 0.5 -0.44999998807907104 -0.5
v 0.40000000596046448 -0.44999998807907104 -0.5
v 0.5 -0.44999998807907104 -0.5
v 0.5 -0.44999998807907104 1.5
v 0.5 -0.5 -0.5
v 0.5 -0.5 1.5
v 0.40000000596046448 -0.44999998807907104 -0.5
v 0.40000000596046448 -0.44999998807907104 1.5
v 0.40000000596046448 -0.5 -0.5
v 0.40000000596046448 -0.5 1.5
vt 0.0476190485060215 0
vt 0.0476190485060215 0.0476190485060215
vt 0.071428574621677399 0
vt 0.071428574621677399 0.0476190485060215
vt 0.52380955219268799 0
vt 0.52380955219268799 0.0476190485060215
vt 0.5476190447807312 0
vt 0.5476190447807312 0.0476190485060215
vt 0.0476190485060215 0.63492065668106079
vt 0.0476190485060215 0.68253970146179199
vt 0.99853515625 0.63492065668106079
vt 0.99853515625 0.68253970146179199
vt 0.0476190485060215 0.3174603283405304
vt 0.0476190485060215 0.3650793731212616
vt 0.99853515625 0.3174603283405304
vt 0.99853515625 0.3650793731212616
vt 0.02380952425301075 0
vt 0.02380952425301075 0.9509161114692688
vt 0.0461542047560215 0
vt 0.0461542047560215 0.9509161114692688
vt 0 0
vt 0 0.9509161114692688
vt 0.02234468050301075 0
vt 0.02234468050301075 0.9509161114692688
vn 0 0 1
vn 0 0 1
vn 0 0 1
vn 0 0 1
vn 0 0 -1
vn 0 0 -1
vn 0 0 -1
vn 0 0 -1
vn 0 -1 0
vn 0 -1 0
vn 0 -1 0
vn 0 -1 0
vn 0 1 0
vn 0 1 0
vn 0 1 0
vn 0 1 0
vn 1 0 0
vn 1 0 0
vn 1 0 0
vn 1 0 0
vn -1 0 0
vn -1 0 0
vn -1 0 0
vn -1 0 0
f 62/62/62 61/61/61 63/63/63 64/64/64
f 66/66/66 65/65/65 67/67/67 68/68/68
f 70/70/70 69/69/69 71/71/71 72/72/72
f 74/74/74 73/73/73 75/75/75 76/76/76
f 78/78/78 80/80/80 79/79/79 77/77/77
f 82/82/82 81/81/81 83/83/83 84/84/84
usemtl diffuse_0
v 0.40000000596046448 0.15000000596046448 -0.5
v 0.40000000596046448 0.15000000596046448 0.5
v 0.40000000596046448 0.40000000596046448 -0.5
v 0.40000000596046448 0.40000000596046448 0.5
v 0.40000000596046448 0.40000000596046448 -0.5
v 0.40000000596046448 0.40000000596046448 0.5
v 0.15000000596046448 0.40000000596046448 -0.5
v 0.15000000596046448 0.40000000596046448 0.5
v 0.15000000596046448 0.40000000596046448 0.5
v 0.15000000596046448 0.15000000596046448 -0.5
v 0.15000000596046448 0.40000000596046448 -0.5
v 0.15000000596046448 0.15000000596046448 0.5
v 0.40000000596046448 0.15000000596046448 -0.5
v 0.40000000596046448 0.15000000596046448 0.5
v 0.15000000596046448 0.15000000596046448 -0.5
v 0.15000000596046448 0.15000000596046448 0.5
v 0.40000000596046448 0.15000000596046448 -0.5
v 0.40000000596046448 0.40000000596046448 -0.5
v 0.15000000596046448 0.40000000596046448 -0.5
v 0.15000000596046448 0.15000000596046448 -0.5
v 0.40000000596046448 0.15000000596046448 0.5
v 0.15000000596046448 0.40000000596046448 0.5
v 0.40000000596046448 0.40000000596046448 0.5
v 0.15000000596046448 0.15000000596046448 0.5
vt 0 0
vt 0 0.79853516817092896
vt 0.19853515923023224 0
vt 0.19853515923023224 0.79853516817092896
vt 0.99853515625 0.40000000596046448
vt 0.20000000298023224 0.40000000596046448
vt 0.99853515625 0.59853518009185791
vt 0.20000000298023224 0.59853518009185791
vt 0.20000000298023224 0.20000000298023224
vt 0.99853515625 0.39853516221046448
vt 0.99853515625 0.20000000298023224
vt 0.20000000298023224 0.39853516221046448
vt 0.99853515625 0.79853516817092896
vt 0.20000000298023224 0.79853516817092896
vt 0.99853515625 0.60000002384185791
vt 0.20000000298023224 0.60000002384185791
vt 0.80000001192092896 0
vt 0.80000001192092896 0.19853515923023224
vt 0.60000002384185791 0.19853515923023224
vt 0.60000002384185791 0
vt 0.20000000298023224 0.19853515923023224
vt 0.40000000596046448 0
vt 0.40000000596046448 0.19853515923023224
vt 0.20000000298023224 0
vn 1 0 0
vn 1 0 0
vn 1 0 0
vn 1 0 0
vn 0 1 0
vn 0 1 0
vn 0 1 0
vn 0 1 0
vn -1 0 0
vn -1 0 0
vn -1 0 0
vn -1 0 0
vn 0 -1 0
vn 0 -1 0
vn 0 -1 0
vn 0 -1 0
vn 0 0 -1
vn 0 0 -1
vn 0 0 -1
vn 0 0 -1
vn 0 0 1
vn 0 0 1
vn 0 0 1
vn 0 0 1
f 86/86/86 85/85/85 87/87/87 88/88/88
f 90/90/90 89/89/89 91/91/91 92/92/92
f 93/93/93 95/95/95 94/94/94 96/96/96
f 100/100/100 99/99/99 97/97/97 98/98/98
f 104/104/104 103/103/103 102/102/102 101/101/101
f 105/105/105 107/107/107 106/106/106 108/108/108
usemtl diffuse_0
v 0.22499999403953552 0.23499999940395355 0.30000001192092896
v 0.15000000596046448 0.23499999940395355 0.30000001192092896
v 0.22499999403953552 0.23499999940395355 0.5
v 0.15000000596046448 0.23499999940395355 0.5
v 0.22499999403953552 0.31499999761581421 0.5
v 0.15000000596046448 0.31499999761581421 0.5
v 0.22499999403953552 0.31499999761581421 0.30000001192092896
v 0.15000000596046448 0.31499999761581421 0.30000001192092896
v 0.22499999403953552 0.23499999940395355 0.30000001192092896
v 0.22499999403953552 0.31499999761581421 0.30000001192092896
v 0.22499999403953552 0.23499999940395355 0.5
v 0.22499999403953552 0.31499999761581421 0.5
v 0.15000000596046448 0.15000000596046448 0.30000001192092896
v 0.15000000596046448 0.15000000596046448 0.5
v -0.5 0.15000000596046448 0.5
v -0.5 0.15000000596046448 0.30000001192092896
v 0.15000000596046448 0.40000000596046448 0.5
v -0.5 0.40000000596046448 0.5
v 0.15000000596046448 0.40000000596046448 0.30000001192092896
v -0.5 0.40000000596046448 0.30000001192092896
v 0.15000000596046448 0.31499999761581421 0.30000001192092896
v 0.15000000596046448 0.40000000596046448 0.30000001192092896
v 0.15000000596046448 0.40000000596046448 0.5
v 0.15000000596046448 0.31499999761581421 0.5
v 0.15000000596046448 0.15000000596046448 0.30000001192092896
v 0.15000000596046448 0.15000000596046448 0.5
v 0.15000000596046448 0.23499999940395355 0.5
v 0.15000000596046448 0.23499999940395355 0.30000001192092896
v -0.5 0.40000000596046448 0.5
v 0.15000000596046448 0.23499999940395355 0.5
v 0.22499999403953552 0.23499999940395355 0.5
v 0.22499999403953552 0.31499999761581421 0.5
v 0.15000000596046448 0.31499999761581421 0.5
v -0.5 0.15000000596046448 0.5
v 0.15000000596046448 0.15000000596046448 0.5
v 0.15000000596046448 0.40000000596046448 0.5
v -0.5 0.40000000596046448 0.30000001192092896
v 0.22499999403953552 0.23499999940395355 0.30000001192092896
v 0.15000000596046448 0.23499999940395355 0.30000001192092896
v 0.15000000596046448 0.31499999761581421 0.30000001192092896
v 0.22499999403953552 0.31499999761581421 0.30000001192092896
v 0.15000000596046448 0.15000000596046448 0.30000001192092896
v 0.15000000596046448 0.40000000596046448 0.30000001192092896
v -0.5 0.15000000596046448 0.30000001192092896
v -0.5 0.15000000596046448 0.5
v -0.5 0.40000000596046448 0.30000001192092896
v -0.5 0.40000000596046448 0.5
v -0.5 0.15000000596046448 0.30000001192092896
vt 0.21481481194496155 0
vt 0.14814814925193787 0
vt 0.21481481194496155 0.17631293833255768
vt 0.14814814925193787 0.17631293833255768
vt 0.066666670143604279 0
vt 0 0
vt 0.066666670143604279 0.17631293833255768
vt 0 0.17631293833255768
vt 0.3674074113368988 0
vt 0.29629629850387573 0
vt 0.3674074113368988 0.17631293833255768
vt 0.29629629850387573 0.17631293833255768
vt 0.57777780294418335 0.17777778208255768
vt 0.57777780294418335 0.35409072041511536
vt 0 0.35409072041511536
vt 0 0.17777778208255768
vt 0.2222222238779068 0.35555556416511536
vt 0.2222222238779068 0.93333333730697632
vt 0.39853516221046448 0.35555556416511536
vt 0.39853516221046448 0.93333333730697632
vt 0.52987653017044067 0
vt 0.4543209969997406 0
vt 0.4543209969997406 0.17631293833255768
vt 0.52987653017044067 0.17631293833255768
vt 0 0.35555556416511536
vt 0.17777778208255768 0.35555556416511536
vt 0.17777778208255768 0.43111109733581543
vt 0 0.43111109733581543
vt 0.84297960996627808 0.64444446563720703
vt 0.69727975130081177 0.066666670143604279
vt 0.69727975130081177 0
vt 0.76792210340499878 0
vt 0.76792210340499878 0.066666670143604279
vt 0.62222224473953247 0.64444446563720703
vt 0.62222224473953247 0.066666670143604279
vt 0.84297960996627808 0.066666670143604279
vt 0.40000000596046448 0.99853515625
vt 0.54569989442825317 0.35555556416511536
vt 0.54569989442825317 0.42207068204879761
vt 0.47505751252174377 0.42207068204879761
vt 0.47505751252174377 0.35555556416511536
vt 0.62075740098953247 0.42207068204879761
vt 0.40000000596046448 0.42207068204879761
vt 0.62075740098953247 0.99853515625
vt 0 0.725536048412323
vt 0.2207573801279068 0.54775828123092651
vt 0.2207573801279068 0.725536048412323
vt 0 0.54775828123092651
vn 0 -1 0
vn 0 -1 0
vn 0 -1 0
vn 0 -1 0
vn 0 1 0
vn 0 1 0
vn 0 1 0
vn 0 1 0
vn 1 0 0
vn 1 0 0
vn 1 0 0
vn 1 0 0
vn 0 -1 0
vn 0 -1 0
vn 0 -1 0
vn 0 -1 0
vn 0 1 0
vn 0 1 0
vn 0 1 0
vn 0 1 0
vn 1 0 0
vn 1 0 0
vn 1 0 0
vn 1 0 0
vn 1 0 0
vn 1 0 0
vn 1 0 0
vn 1 0 0
vn 0 0 1
vn 0 0 1
vn 0 0 1
vn 0 0 1
vn 0 0 1
vn 0 0 1
vn 0 0 1
vn 0 0 1
vn 0 0 -1
vn 0 0 -1
vn 0 0 -1
vn 0 0 -1
vn 0 0 -1
vn 0 0 -1
vn 0 0 -1
vn 0 0 -1
vn -1 0 0
vn -1 0 0
vn -1 0 0
vn -1 0 0
f 110/110/110 109/109/109 111/111/111 112/112/112
f 114/114/114 113/113/113 115/115/115 116/116/116
f 118/118/118 120/120/120 119/119/119 117/117/117
f 124/124/124 121/121/121 122/122/122 123/123/123
f 126/126/126 125/125/125 127/127/127 128/128/128
f 130/130/130 131/131/131 132/132/132 129/129/129
f 136/136/136 135/135/135 134/134/134 133/133/133
f 137/137/137 142/142/142 138/138/138
f 143/143/143 138/138/138 142/142/142
f 138/138/138 139/139/139 140/140/140
f 138/138/138 140/140/140 141/141/141
f 141/141/141 144/144/144 137/137/137
f 138/138/138 141/141/141 137/137/137
f 147/147/147 148/148/148 149/149/149
f 148/148/148 145/145/145 151/151/151
f 145/145/145 148/148/148 147/147/147
f 145/145/145 147/147/147 152/152/152
f 150/150/150 152/152/152 147/147/147
f 149/149/149 146/146/146 147/147/147
f 153/153/153 155/155/155 154/154/154 156/156/156
usemtl diffuse_0
v 0.22499999403953552 0.15000000596046448 0.5
v 0.22499999403953552 0.15000000596046448 0.30000001192092896
v 0.22499999403953552 0.22499999403953552 0.5
v 0.22499999403953552 0.22499999403953552 0.30000001192092896
v 0.22499999403953552 0.22499999403953552 0.5
v 0.22499999403953552 0.22499999403953552 0.30000001192092896
v 0.32499998807907104 0.22499999403953552 0.5
v 0.32499998807907104 0.22499999403953552 0.30000001192092896
v 0.32499998807907104 0.22499999403953552 0.5
v 0.32499998807907104 0.22499999403953552 0.30000001192092896
v 0.32499998807907104 0.15000000596046448 0.5
v 0.32499998807907104 0.15000000596046448 0.30000001192092896
v 0.40000000596046448 0.15000000596046448 0.30000001192092896
v 0.40000000596046448 0.15000000596046448 0.5
v 0.32499998807907104 0.15000000596046448 0.5
v 0.32499998807907104 0.15000000596046448 0.30000001192092896
v 0.22499999403953552 0.15000000596046448 0.30000001192092896
v 0.15000000596046448 0.15000000596046448 0.30000001192092896
v 0.15000000596046448 0.15000000596046448 0.5
v 0.22499999403953552 0.15000000596046448 0.5
v 0.15000000596046448 -0.5 0.5
v 0.22499999403953552 0.15000000596046448 0.5
v 0.22499999403953552 0.22499999403953552 0.5
v 0.32499998807907104 0.22499999403953552 0.5
v 0.32499998807907104 0.15000000596046448 0.5
v 0.40000000596046448 0.15000000596046448 0.5
v 0.15000000596046448 0.15000000596046448 0.5
v 0.40000000596046448 -0.5 0.5
v 0.40000000596046448 -0.5 0.5
v 0.40000000596046448 -0.5 0.30000001192092896
v 0.15000000596046448 -0.5 0.5
v 0.15000000596046448 -0.5 0.30000001192092896
v 0.40000000596046448 0.15000000596046448 0.30000001192092896
v 0.40000000596046448 0.15000000596046448 0.5
v 0.40000000596046448 -0.5 0.5
v 0.40000000596046448 -0.5 0.30000001192092896
v 0.15000000596046448 0.15000000596046448 0.5
v 0.15000000596046448 -0.5 0.5
v 0.15000000596046448 0.15000000596046448 0.30000001192092896
v 0.15000000596046448 -0.5 0.30000001192092896
v 0.15000000596046448 -0.5 0.30000001192092896
v 0.22499999403953552 0.15000000596046448 0.30000001192092896
v 0.22499999403953552 0.22499999403953552 0.30000001192092896
v 0.32499998807907104 0.22499999403953552 0.30000001192092896
v 0.32499998807907104 0.15000000596046448 0.30000001192092896
v 0.40000000596046448 0.15000000596046448 0.30000001192092896
v 0.15000000596046448 0.15000000596046448 0.30000001192092896
v 0.40000000596046448 -0.5 0.30000001192092896
vt 0.15555556118488312 0
vt 0.15555556118488312 0.17631293833255768
vt 0.2222222238779068 0
vt 0.2222222238779068 0.17631293833255768
vt 0.17777778208255768 0.35555556416511536
vt 0 0.35555556416511536
vt 0.17777778208255768 0.4444444477558136
vt 0 0.4444444477558136
vt 0 0
vt 0 0.17631293833255768
vt 0.066666670143604279 0
vt 0.066666670143604279 0.17631293833255768
vt 0.53333336114883423 0
vt 0.53333336114883423 0.17631293833255768
vt 0.46666666865348816 0.17631293833255768
vt 0.46666666865348816 0
vt 0.37777778506278992 0
vt 0.31111112236976624 0
vt 0.31111112236976624 0.17631293833255768
vt 0.37777778506278992 0.17631293833255768
vt 0.62075740098953247 0.35555556416511536
vt 0.55453014373779297 0.93202000856399536
vt 0.55453014373779297 0.99853515625
vt 0.4662272036075592 0.99853515625
vt 0.4662272036075592 0.93202000856399536
vt 0.40000000596046448 0.93202000856399536
vt 0.62075740098953247 0.93202000856399536
vt 0.40000000596046448 0.35555556416511536
vt 0.2207573801279068 0.74814814329147339
vt 0.2207573801279068 0.5703703761100769
vt 0 0.74814814329147339
vt 0 0.5703703761100769
vt 0.2222222238779068 0.35555556416511536
vt 0.39853516221046448 0.35555556416511536
vt 0.39853516221046448 0.93333333730697632
vt 0.2222222238779068 0.93333333730697632
vt 0.57777780294418335 0.17777778208255768
vt 0 0.17777778208255768
vt 0.57777780294418335 0.35409072041511536
vt 0 0.35409072041511536
vt 0.84297960996627808 0
vt 0.77675241231918335 0.57777780294418335
vt 0.77675241231918335 0.64444446563720703
vt 0.6884494423866272 0.64444446563720703
vt 0.6884494423866272 0.57777780294418335
vt 0.62222224473953247 0.57777780294418335
vt 0.84297960996627808 0.57777780294418335
vt 0.62222224473953247 0
vn -1 0 0
vn -1 0 0
vn -1 0 0
vn -1 0 0
vn 0 1 0
vn 0 1 0
vn 0 1 0
vn 0 1 0
vn 1 0 0
vn 1 0 0
vn 1 0 0
vn 1 0 0
vn 0 1 0
vn 0 1 0
vn 0 1 0
vn 0 1 0
vn 0 1 0
vn 0 1 0
vn 0 1 0
vn 0 1 0
vn 0 0 1
vn 0 0 1
vn 0 0 1
vn 0 0 1
vn 0 0 1
vn 0 0 1
vn 0 0 1
vn 0 0 1
vn 0 -1 0
vn 0 -1 0
vn 0 -1 0
vn 0 -1 0
vn 1 0 0
vn 1 0 0
vn 1 0 0
vn 1 0 0
vn -1 0 0
vn -1 0 0
vn -1 0 0
vn -1 0 0
vn 0 0 -1
vn 0 0 -1
vn 0 0 -1
vn 0 0 -1
vn 0 0 -1
vn 0 0 -1
vn 0 0 -1
vn 0 0 -1
f 158/158/158 157/157/157 159/159/159 160/160/160
f 162/162/162 161/161/161 163/163/163 164/164/164
f 166/166/166 165/165/165 167/167/167 168/168/168
f 172/172/172 171/171/171 170/170/170 169/169/169
f 174/174/174 175/175/175 176/176/176 173/173/173
f 184/184/184 181/181/181 178/178/178 177/177/177
f 183/183/183 177/177/177 178/178/178
f 184/184/184 182/182/182 181/181/181
f 181/181/181 180/180/180 179/179/179 178/178/178
f 188/188/188 186/186/186 185/185/185 187/187/187
f 192/192/192 189/189/189 190/190/190 191/191/191
f 194/194/194 193/193/193 195/195/195 196/196/196
f 204/204/204 197/197/197 198/198/198 201/201/201
f 204/204/204 201/201/201 202/202/202
f 198/198/198 197/197/197 203/203/203
f 199/199/199 200/200/200 201/201/201 198/198/198
