# Rhino

mtllib t_17.mtl
usemtl diffuse_0
v 0.15000000596046448 0.5 -0.30000001192092896
v 0.40000000596046448 0.5 -0.30000001192092896
v 0.40000000596046448 0.5 -0.5
v 0.15000000596046448 0.5 -0.5
v 0.15000000596046448 -0.5 -0.30000001192092896
v 0.34999999403953552 -0.5 -0.30000001192092896
v 0.34999999403953552 -0.5 -0.5
v 0.15000000596046448 -0.5 -0.5
v 0.15000000596046448 0.5 -0.30000001192092896
v 0.15000000596046448 -0.5 -0.5
v 0.15000000596046448 0.5 -0.5
v 0.15000000596046448 -0.5 -0.30000001192092896
v 0.40000000596046448 -0.44999998807907104 -0.5
v 0.40000000596046448 0.5 -0.30000001192092896
v 0.40000000596046448 0.5 -0.5
v 0.40000000596046448 -0.44999998807907104 -0.30000001192092896
v 0.15000000596046448 0.5 -0.30000001192092896
v 0.40000000596046448 0.5 -0.30000001192092896
v 0.40000000596046448 -0.44999998807907104 -0.30000001192092896
v 0.34999999403953552 -0.5 -0.30000001192092896
v 0.34999999403953552 -0.44999998807907104 -0.30000001192092896
v 0.15000000596046448 -0.5 -0.30000001192092896
v 0.34999999403953552 -0.44999998807907104 -0.5
v 0.34999999403953552 -0.5 -0.5
v 0.34999999403953552 -0.5 -0.30000001192092896
v 0.34999999403953552 -0.44999998807907104 -0.30000001192092896
v 0.40000000596046448 -0.44999998807907104 -0.30000001192092896
v 0.34999999403953552 -0.44999998807907104 -0.5
v 0.40000000596046448 -0.44999998807907104 -0.5
v 0.34999999403953552 -0.44999998807907104 -0.30000001192092896
v 0.15000000596046448 -0.5 -0.5
v 0.15000000596046448 0.5 -0.5
v 0.40000000596046448 0.5 -0.5
v 0.40000000596046448 -0.44999998807907104 -0.5
v 0.34999999403953552 -0.5 -0.5
v 0.34999999403953552 -0.44999998807907104 -0.5
vt 0.60000002384185791 0.079999998211860657
vt 0.60000002384185791 0.2785351574420929
vt 0.75999999046325684 0.2785351574420929
vt 0.75999999046325684 0.079999998211860657
vt 0.36000001430511475 0.079999998211860657
vt 0.20000000298023224 0.079999998211860657
vt 0.20000000298023224 0.23999999463558197
vt 0.36000001430511475 0.23999999463558197
vt 0.99853515625 0.63999998569488525
vt 0.20000000298023224 0.79853516817092896
vt 0.99853515625 0.79853516817092896
vt 0.20000000298023224 0.63999998569488525
vt 0.20000000298023224 0.47999998927116394
vt 0.95999997854232788 0.63853514194488525
vt 0.95999997854232788 0.47999998927116394
vt 0.20000000298023224 0.63853514194488525
vt 0.99853515625 0.47853514552116394
vt 0.99853515625 0.2800000011920929
vt 0.23992675542831421 0.2800000011920929
vt 0.20000000298023224 0.31970703601837158
vt 0.23992675542831421 0.31970703601837158
vt 0.20000000298023224 0.47853514552116394
vt 0.36000001430511475 0
vt 0.36000001430511475 0.038535155355930328
vt 0.20000000298023224 0.038535155355930328
vt 0.20000000298023224 0
vt 0.20000000298023224 0.039999999105930328
vt 0.36000001430511475 0.078535154461860657
vt 0.36000001430511475 0.039999999105930328
vt 0.20000000298023224 0.078535154461860657
vt 0 0
vt 0 0.79853516817092896
vt 0.19853515923023224 0.79853516817092896
vt 0.19853515923023224 0.039926759898662567
vt 0.15882812440395355 0
vt 0.15882812440395355 0.039926759898662567
vn 0 1 0
vn 0 1 0
vn 0 1 0
vn 0 1 0
vn 0 -1 0
vn 0 -1 0
vn 0 -1 0
vn 0 -1 0
vn -1 0 0
vn -1 0 0
vn -1 0 0
vn -1 0 0
vn 1 0 0
vn 1 0 0
vn 1 0 0
vn 1 0 0
vn 0 0 1
vn 0 0 1
vn 0 0 1
vn 0 0 1
vn 0 0 1
vn 0 0 1
vn 1 0 0
vn 1 0 0
vn 1 0 0
vn 1 0 0
vn 0 -1 0
vn 0 -1 0
vn 0 -1 0
vn 0 -1 0
vn 0 0 -1
vn 0 0 -1
vn 0 0 -1
vn 0 0 -1
vn 0 0 -1
vn 0 0 -1
f 2/2/2 3/3/3 4/4/4 1/1/1
f 6/6/6 5/5/5 8/8/8 7/7/7
f 12/12/12 9/9/9 11/11/11 10/10/10
f 13/13/13 15/15/15 14/14/14 16/16/16
f 22/22/22 20/20/20 21/21/21
f 17/17/17 22/22/22 21/21/21
f 21/21/21 18/18/18 17/17/17
f 19/19/19 18/18/18 21/21/21
f 26/26/26 25/25/25 24/24/24 23/23/23
f 30/30/30 28/28/28 29/29/29 27/27/27
f 36/36/36 35/35/35 31/31/31
f 32/32/32 33/33/33 36/36/36
f 34/34/34 36/36/36 33/33/33
f 31/31/31 32/32/32 36/36/36
usemtl diffuse_0
v 0.34999999403953552 -0.44999998807907104 -0.5
v 0.34999999403953552 -0.5 -0.5
v 0.34999999403953552 -0.5 0.5
v 0.34999999403953552 -0.44999998807907104 0.5
v 0.5 -0.44999998807907104 -0.5
v 0.5 -0.44999998807907104 0.5
v 0.5 -0.5 -0.5
v 0.5 -0.5 0.5
v 0.34999999403953552 -0.44999998807907104 0.5
v 0.5 -0.44999998807907104 -0.5
v 0.34999999403953552 -0.44999998807907104 -0.5
v 0.5 -0.44999998807907104 0.5
v 0.5 -0.44999998807907104 -0.5
v 0.34999999403953552 -0.44999998807907104 -0.5
v 0.5 -0.5 -0.5
v 0.34999999403953552 -0.5 -0.5
v 0.5 -0.5 -0.5
v 0.34999999403953552 -0.5 -0.5
v 0.34999999403953552 -0.5 0.5
v 0.5 -0.5 0.5
v 0.5 -0.44999998807907104 0.5
v 0.5 -0.5 0.5
v 0.34999999403953552 -0.5 0.5
v 0.34999999403953552 -0.44999998807907104 0.5
vt 0.045454546809196472 0
vt 0.089444249868392944 0
vt 0.089444249868392944 0.90762609243392944
vt 0.045454546809196472 0.90762609243392944
vt 0 0
vt 0 0.90762609243392944
vt 0.043989703059196472 0
vt 0.043989703059196472 0.90762609243392944
vt 0.090909093618392944 0.36363637447357178
vt 0.99853515625 0.22727273404598236
vt 0.99853515625 0.36363637447357178
vt 0.090909093618392944 0.22727273404598236
vt 0.22727273404598236 0.11363636702299118
vt 0.090909093618392944 0.11363636702299118
vt 0.22727273404598236 0.15909090638160706
vt 0.090909093618392944 0.15909090638160706
vt 0.090909093618392944 0.56818181276321411
vt 0.090909093618392944 0.70454543828964233
vt 0.99853515625 0.70454543828964233
vt 0.99853515625 0.56818181276321411
vt 0.22727273404598236 0
vt 0.22727273404598236 0.045454546809196472
vt 0.090909093618392944 0.045454546809196472
vt 0.090909093618392944 0
vn -1 0 0
vn -1 0 0
vn -1 0 0
vn -1 0 0
vn 1 0 0
vn 1 0 0
vn 1 0 0
vn 1 0 0
vn 0 1 0
vn 0 1 0
vn 0 1 0
vn 0 1 0
vn 0 0 -1
vn 0 0 -1
vn 0 0 -1
vn 0 0 -1
vn 0 -1 0
vn 0 -1 0
vn 0 -1 0
vn 0 -1 0
vn 0 0 1
vn 0 0 1
vn 0 0 1
vn 0 0 1
f 40/40/40 37/37/37 38/38/38 39/39/39
f 42/42/42 44/44/44 43/43/43 41/41/41
f 45/45/45 48/48/48 46/46/46 47/47/47
f 50/50/50 49/49/49 51/51/51 52/52/52
f 54/54/54 53/53/53 56/56/56 55/55/55
f 59/59/59 58/58/58 57/57/57 60/60/60
usemtl diffuse_0
v 0.15000000596046448 0.5 -0.30000001192092896
v 0.40000000596046448 0.5 -0.30000001192092896
v 0.40000000596046448 0.5 -0.5
v 0.15000000596046448 0.5 -0.5
v 0.15000000596046448 -0.5 -0.30000001192092896
v 0.34999999403953552 -0.5 -0.30000001192092896
v 0.34999999403953552 -0.5 -0.5
v 0.15000000596046448 -0.5 -0.5
v 0.15000000596046448 0.5 -0.30000001192092896
v 0.15000000596046448 -0.5 -0.5
v 0.15000000596046448 0.5 -0.5
v 0.15000000596046448 -0.5 -0.30000001192092896
v 0.40000000596046448 -0.44999998807907104 -0.5
v 0.40000000596046448 0.5 -0.30000001192092896
v 0.40000000596046448 0.5 -0.5
v 0.40000000596046448 -0.44999998807907104 -0.30000001192092896
v 0.15000000596046448 0.5 -0.30000001192092896
v 0.40000000596046448 0.5 -0.30000001192092896
v 0.40000000596046448 -0.44999998807907104 -0.30000001192092896
v 0.34999999403953552 -0.5 -0.30000001192092896
v 0.34999999403953552 -0.44999998807907104 -0.30000001192092896
v 0.15000000596046448 -0.5 -0.30000001192092896
v 0.34999999403953552 -0.44999998807907104 -0.5
v 0.34999999403953552 -0.5 -0.5
v 0.34999999403953552 -0.5 -0.30000001192092896
v 0.34999999403953552 -0.44999998807907104 -0.30000001192092896
v 0.40000000596046448 -0.44999998807907104 -0.30000001192092896
v 0.34999999403953552 -0.44999998807907104 -0.5
v 0.40000000596046448 -0.44999998807907104 -0.5
v 0.34999999403953552 -0.44999998807907104 -0.30000001192092896
v 0.15000000596046448 -0.5 -0.5
v 0.15000000596046448 0.5 -0.5
v 0.40000000596046448 0.5 -0.5
v 0.40000000596046448 -0.44999998807907104 -0.5
v 0.34999999403953552 -0.5 -0.5
v 0.34999999403953552 -0.44999998807907104 -0.5
vt 0.60000002384185791 0.079999998211860657
vt 0.60000002384185791 0.2785351574420929
vt 0.75999999046325684 0.2785351574420929
vt 0.75999999046325684 0.079999998211860657
vt 0.36000001430511475 0.079999998211860657
vt 0.20000000298023224 0.079999998211860657
vt 0.20000000298023224 0.23999999463558197
vt 0.36000001430511475 0.23999999463558197
vt 0.99853515625 0.63999998569488525
vt 0.20000000298023224 0.79853516817092896
vt 0.99853515625 0.79853516817092896
vt 0.20000000298023224 0.63999998569488525
vt 0.20000000298023224 0.47999998927116394
vt 0.95999997854232788 0.63853514194488525
vt 0.95999997854232788 0.47999998927116394
vt 0.20000000298023224 0.63853514194488525
vt 0.99853515625 0.47853514552116394
vt 0.99853515625 0.2800000011920929
vt 0.23992675542831421 0.2800000011920929
vt 0.20000000298023224 0.31970703601837158
vt 0.23992675542831421 0.31970703601837158
vt 0.20000000298023224 0.47853514552116394
vt 0.36000001430511475 0
vt 0.36000001430511475 0.038535155355930328
vt 0.20000000298023224 0.038535155355930328
vt 0.20000000298023224 0
vt 0.20000000298023224 0.039999999105930328
vt 0.36000001430511475 0.078535154461860657
vt 0.36000001430511475 0.039999999105930328
vt 0.20000000298023224 0.078535154461860657
vt 0 0
vt 0 0.79853516817092896
vt 0.19853515923023224 0.79853516817092896
vt 0.19853515923023224 0.039926759898662567
vt 0.15882812440395355 0
vt 0.15882812440395355 0.039926759898662567
vn 0 1 0
vn 0 1 0
vn 0 1 0
vn 0 1 0
vn 0 -1 0
vn 0 -1 0
vn 0 -1 0
vn 0 -1 0
vn -1 0 0
vn -1 0 0
vn -1 0 0
vn -1 0 0
vn 1 0 0
vn 1 0 0
vn 1 0 0
vn 1 0 0
vn 0 0 1
vn 0 0 1
vn 0 0 1
vn 0 0 1
vn 0 0 1
vn 0 0 1
vn 1 0 0
vn 1 0 0
vn 1 0 0
vn 1 0 0
vn 0 -1 0
vn 0 -1 0
vn 0 -1 0
vn 0 -1 0
vn 0 0 -1
vn 0 0 -1
vn 0 0 -1
vn 0 0 -1
vn 0 0 -1
vn 0 0 -1
f 62/62/62 63/63/63 64/64/64 61/61/61
f 66/66/66 65/65/65 68/68/68 67/67/67
f 72/72/72 69/69/69 71/71/71 70/70/70
f 73/73/73 75/75/75 74/74/74 76/76/76
f 82/82/82 80/80/80 81/81/81
f 77/77/77 82/82/82 81/81/81
f 81/81/81 78/78/78 77/77/77
f 79/79/79 78/78/78 81/81/81
f 86/86/86 85/85/85 84/84/84 83/83/83
f 90/90/90 88/88/88 89/89/89 87/87/87
f 96/96/96 95/95/95 91/91/91
f 92/92/92 93/93/93 96/96/96
f 94/94/94 96/96/96 93/93/93
f 91/91/91 92/92/92 96/96/96
usemtl diffuse_0
v 0.34999999403953552 -0.44999998807907104 -0.5
v 0.34999999403953552 -0.5 -0.5
v 0.34999999403953552 -0.5 0.5
v 0.34999999403953552 -0.44999998807907104 0.5
v 0.5 -0.44999998807907104 -0.5
v 0.5 -0.44999998807907104 0.5
v 0.5 -0.5 -0.5
v 0.5 -0.5 0.5
v 0.34999999403953552 -0.44999998807907104 0.5
v 0.5 -0.44999998807907104 -0.5
v 0.34999999403953552 -0.44999998807907104 -0.5
v 0.5 -0.44999998807907104 0.5
v 0.5 -0.44999998807907104 -0.5
v 0.34999999403953552 -0.44999998807907104 -0.5
v 0.5 -0.5 -0.5
v 0.34999999403953552 -0.5 -0.5
v 0.5 -0.5 -0.5
v 0.34999999403953552 -0.5 -0.5
v 0.34999999403953552 -0.5 0.5
v 0.5 -0.5 0.5
v 0.5 -0.44999998807907104 0.5
v 0.5 -0.5 0.5
v 0.34999999403953552 -0.5 0.5
v 0.34999999403953552 -0.44999998807907104 0.5
vt 0.045454546809196472 0
vt 0.089444249868392944 0
vt 0.089444249868392944 0.90762609243392944
vt 0.045454546809196472 0.90762609243392944
vt 0 0
vt 0 0.90762609243392944
vt 0.043989703059196472 0
vt 0.043989703059196472 0.90762609243392944
vt 0.090909093618392944 0.36363637447357178
vt 0.99853515625 0.22727273404598236
vt 0.99853515625 0.36363637447357178
vt 0.090909093618392944 0.22727273404598236
vt 0.22727273404598236 0.11363636702299118
vt 0.090909093618392944 0.11363636702299118
vt 0.22727273404598236 0.15909090638160706
vt 0.090909093618392944 0.15909090638160706
vt 0.090909093618392944 0.56818181276321411
vt 0.090909093618392944 0.70454543828964233
vt 0.99853515625 0.70454543828964233
vt 0.99853515625 0.56818181276321411
vt 0.22727273404598236 0
vt 0.22727273404598236 0.045454546809196472
vt 0.090909093618392944 0.045454546809196472
vt 0.090909093618392944 0
vn -1 0 0
vn -1 0 0
vn -1 0 0
vn -1 0 0
vn 1 0 0
vn 1 0 0
vn 1 0 0
vn 1 0 0
vn 0 1 0
vn 0 1 0
vn 0 1 0
vn 0 1 0
vn 0 0 -1
vn 0 0 -1
vn 0 0 -1
vn 0 0 -1
vn 0 -1 0
vn 0 -1 0
vn 0 -1 0
vn 0 -1 0
vn 0 0 1
vn 0 0 1
vn 0 0 1
vn 0 0 1
f 100/100/100 97/97/97 98/98/98 99/99/99
f 102/102/102 104/104/104 103/103/103 101/101/101
f 105/105/105 108/108/108 106/106/106 107/107/107
f 110/110/110 109/109/109 111/111/111 112/112/112
f 114/114/114 113/113/113 116/116/116 115/115/115
f 119/119/119 118/118/118 117/117/117 120/120/120
