# Rhino

mtllib t_21.mtl
usemtl diffuse_0
v -0.44999998807907104 0.5 0.5
v -0.47121319174766541 0.47878679633140564 0.5
v 0.5 -0.44999998807907104 0.5
v 0.47878679633140564 -0.47121319174766541 0.5
v 0.01969669945538044 0.01969669945538044 0.5
v 0.25719669461250305 -0.21780329942703247 0.5
v 0.022348349913954735 0.022348349913954735 0.5
v 0.25984835624694824 -0.21515165269374847 0.5
v 0.37859836220741272 -0.33390164375305176 0.5
v 0.26117417216300964 -0.21382582187652588 0.5
v 0.37992417812347412 -0.33257582783699036 0.5
v 0.43929916620254517 -0.3919508159160614 0.5
v 0.38058710098266602 -0.33191290497779846 0.5
v 0.43996208906173706 -0.39128792285919189 0.5
v 0.0090900976210832596 0.0090900976210832596 0.5
v 0.0064384471625089645 0.0064384471625089645 0.5
v 0.24659009277820587 -0.22840990126132965 0.5
v 0.24393844604492188 -0.23106154799461365 0.5
v 0.24261261522769928 -0.23238737881183624 0.5
v 0.36268845200538635 -0.34981155395507813 0.5
v 0.36136263608932495 -0.35113736987113953 0.5
v 0.36069971323013306 -0.35180029273033142 0.5
v 0.420737624168396 -0.41051238775253296 0.5
v 0.4200747013092041 -0.41117528080940247 0.5
v -0.22840990126132965 0.24659009277820587 0.5
v -0.23106154799461365 0.24393844604492188 0.5
v -0.23238737881183624 0.24261261522769928 0.5
v -0.34981155395507813 0.36268845200538635 0.5
v -0.35113736987113953 0.36136263608932495 0.5
v -0.35180029273033142 0.36069971323013306 0.5
v -0.41051238775253296 0.420737624168396 0.5
v -0.41117528080940247 0.4200747013092041 0.5
v -0.21780329942703247 0.25719669461250305 0.5
v -0.21515165269374847 0.25984835624694824 0.5
v -0.21382582187652588 0.26117417216300964 0.5
v -0.33390164375305176 0.37859836220741272 0.5
v -0.33257582783699036 0.37992417812347412 0.5
v -0.33191290497779846 0.38058710098266602 0.5
v -0.3919508159160614 0.43929916620254517 0.5
v -0.39128792285919189 0.43996208906173706 0.5
v -0.44999998807907104 0.5 0.30000001192092896
v -0.47121319174766541 0.47878679633140564 0.30000001192092896
v -0.44999998807907104 0.5 0.5
v -0.47121319174766541 0.47878679633140564 0.5
v 0.5 -0.44999998807907104 0.30000001192092896
v 0.47878679633140564 -0.47121319174766541 0.30000001192092896
v -0.44999998807907104 0.5 0.30000001192092896
v -0.47121319174766541 0.47878679633140564 0.30000001192092896
v 0.01969669945538044 0.01969669945538044 0.30000001192092896
v -0.21780329942703247 0.25719669461250305 0.30000001192092896
v 0.022348349913954735 0.022348349913954735 0.30000001192092896
v -0.21515165269374847 0.25984835624694824 0.30000001192092896
v -0.33390164375305176 0.37859836220741272 0.30000001192092896
v -0.21382582187652588 0.26117417216300964 0.30000001192092896
v -0.33257582783699036 0.37992417812347412 0.30000001192092896
v -0.3919508159160614 0.43929916620254517 0.30000001192092896
v -0.33191290497779846 0.38058710098266602 0.30000001192092896
v -0.39128792285919189 0.43996208906173706 0.30000001192092896
v 0.0090900976210832596 0.0090900976210832596 0.30000001192092896
v 0.0064384471625089645 0.0064384471625089645 0.30000001192092896
v -0.22840990126132965 0.24659009277820587 0.30000001192092896
v -0.23106154799461365 0.24393844604492188 0.30000001192092896
v -0.23238737881183624 0.24261261522769928 0.30000001192092896
v -0.34981155395507813 0.36268845200538635 0.30000001192092896
v -0.35113736987113953 0.36136263608932495 0.30000001192092896
v -0.35180029273033142 0.36069971323013306 0.30000001192092896
v -0.41051238775253296 0.420737624168396 0.30000001192092896
v -0.41117528080940247 0.4200747013092041 0.30000001192092896
v 0.24659009277820587 -0.22840990126132965 0.30000001192092896
v 0.24393844604492188 -0.23106154799461365 0.30000001192092896
v 0.24261261522769928 -0.23238737881183624 0.30000001192092896
v 0.36268845200538635 -0.34981155395507813 0.30000001192092896
v 0.36136263608932495 -0.35113736987113953 0.30000001192092896
v 0.36069971323013306 -0.35180029273033142 0.30000001192092896
v 0.420737624168396 -0.41051238775253296 0.30000001192092896
v 0.4200747013092041 -0.41117528080940247 0.30000001192092896
v 0.25719669461250305 -0.21780329942703247 0.30000001192092896
v 0.25984835624694824 -0.21515165269374847 0.30000001192092896
v 0.26117417216300964 -0.21382582187652588 0.30000001192092896
v 0.37859836220741272 -0.33390164375305176 0.30000001192092896
v 0.37992417812347412 -0.33257582783699036 0.30000001192092896
v 0.38058710098266602 -0.33191290497779846 0.30000001192092896
v 0.43929916620254517 -0.3919508159160614 0.30000001192092896
v 0.43996208906173706 -0.39128792285919189 0.30000001192092896
v 0.5 -0.44999998807907104 0.5
v 0.47878679633140564 -0.47121319174766541 0.5
v 0.5 -0.44999998807907104 0.30000001192092896
v 0.47878679633140564 -0.47121319174766541 0.30000001192092896
v -0.44999998807907104 0.5 0.30000001192092896
v -0.44999998807907104 0.5 0.5
v 0.5 -0.44999998807907104 0.30000001192092896
v 0.5 -0.44999998807907104 0.5
v -0.47121319174766541 0.47878679633140564 0.30000001192092896
v -0.47121319174766541 0.47878679633140564 0.5
v 0.47878679633140564 -0.47121319174766541 0.30000001192092896
v 0.47878679633140564 -0.47121319174766541 0.5
vt 0.041285336017608643 0
vt 0.021375089883804321 0
vt 0.041285336017608643 0.95578497648239136
vt 0.021375089883804321 0.95578497648239136
vt 0.036307774484157562 0.47789248824119568
vt 0.036307774484157562 0.71683871746063232
vt 0.038796555250883102 0.47789248824119568
vt 0.038796555250883102 0.71683871746063232
vt 0.038796555250883102 0.83631187677383423
vt 0.040040943771600723 0.71683871746063232
vt 0.040040943771600723 0.83631187677383423
vt 0.040040943771600723 0.89604842662811279
vt 0.040663141757249832 0.83631187677383423
vt 0.040663141757249832 0.89604842662811279
vt 0.026352651417255402 0.47789248824119568
vt 0.023863870650529861 0.47789248824119568
vt 0.026352651417255402 0.71683871746063232
vt 0.023863870650529861 0.71683871746063232
vt 0.022619480267167091 0.71683871746063232
vt 0.023863870650529861 0.83631187677383423
vt 0.022619480267167091 0.83631187677383423
vt 0.021997284144163132 0.83631187677383423
vt 0.022619480267167091 0.89604842662811279
vt 0.021997284144163132 0.89604842662811279
vt 0.026352651417255402 0.23894624412059784
vt 0.023863870650529861 0.23894624412059784
vt 0.022619480267167091 0.23894624412059784
vt 0.023863870650529861 0.11947312206029892
vt 0.022619480267167091 0.11947312206029892
vt 0.021997284144163132 0.11947312206029892
vt 0.022619480267167091 0.05973656103014946
vt 0.021997284144163132 0.05973656103014946
vt 0.036307774484157562 0.23894624412059784
vt 0.038796555250883102 0.23894624412059784
vt 0.040040943771600723 0.23894624412059784
vt 0.038796555250883102 0.11947312206029892
vt 0.040040943771600723 0.11947312206029892
vt 0.040663141757249832 0.11947312206029892
vt 0.040040943771600723 0.05973656103014946
vt 0.040663141757249832 0.05973656103014946
vt 0.042750179767608643 0.062429334968328476
vt 0.042750179767608643 0.083804428577423096
vt 0.18525077402591705 0.062429334968328476
vt 0.18525077402591705 0.083804428577423096
vt 0.019910246133804321 0
vt 0 0
vt 0.019910246133804321 0.95578497648239136
vt 0 0.95578497648239136
vt 0.014932684600353241 0.47789248824119568
vt 0.014932684600353241 0.71683871746063232
vt 0.017421465367078781 0.47789248824119568
vt 0.017421465367078781 0.71683871746063232
vt 0.017421465367078781 0.83631187677383423
vt 0.018665855750441551 0.71683871746063232
vt 0.018665855750441551 0.83631187677383423
vt 0.018665855750441551 0.89604842662811279
vt 0.019288050010800362 0.83631187677383423
vt 0.019288050010800362 0.89604842662811279
vt 0.0049775615334510803 0.47789248824119568
vt 0.0024887807667255402 0.47789248824119568
vt 0.0049775615334510803 0.71683871746063232
vt 0.0024887807667255402 0.71683871746063232
vt 0.0012443903833627701 0.71683871746063232
vt 0.0024887807667255402 0.83631187677383423
vt 0.0012443903833627701 0.83631187677383423
vt 0.00062219519168138504 0.83631187677383423
vt 0.0012443903833627701 0.89604842662811279
vt 0.00062219519168138504 0.89604842662811279
vt 0.0049775615334510803 0.23894624412059784
vt 0.0024887807667255402 0.23894624412059784
vt 0.0012443903833627701 0.23894624412059784
vt 0.0024887807667255402 0.11947312206029892
vt 0.0012443903833627701 0.11947312206029892
vt 0.00062219519168138504 0.11947312206029892
vt 0.0012443903833627701 0.05973656103014946
vt 0.00062219519168138504 0.05973656103014946
vt 0.014932684600353241 0.23894624412059784
vt 0.017421465367078781 0.23894624412059784
vt 0.018665855750441551 0.23894624412059784
vt 0.017421465367078781 0.11947312206029892
vt 0.018665855750441551 0.11947312206029892
vt 0.019288050010800362 0.11947312206029892
vt 0.018665855750441551 0.05973656103014946
vt 0.019288050010800362 0.05973656103014946
vt 0.042750179767608643 0
vt 0.042750179767608643 0.021375089883804321
vt 0.18525077402591705 0
vt 0.18525077402591705 0.021375089883804321
vt 0.042750179767608643 0.54105424880981445
vt 0.042750179767608643 0.68355482816696167
vt 0.99853515625 0.54105424880981445
vt 0.99853515625 0.68355482816696167
vt 0.042750179767608643 0.12485866993665695
vt 0.042750179767608643 0.26735925674438477
vt 0.99853515625 0.12485866993665695
vt 0.99853515625 0.26735925674438477
vn 0 0 1
vn 0 0 1
vn 0 0 1
vn 0 0 1
vn 0 0 1
vn 0 0 1
vn 0 0 1
vn 0 0 1
vn 0 0 1
vn 0 0 1
vn 0 0 1
vn 0 0 1
vn 0 0 1
vn 0 0 1
vn 0 0 1
vn 0 0 1
vn 0 0 1
vn 0 0 1
vn 0 0 1
vn 0 0 1
vn 0 0 1
vn 0 0 1
vn 0 0 1
vn 0 0 1
vn 0 0 1
vn 0 0 1
vn 0 0 1
vn 0 0 1
vn 0 0 1
vn 0 0 1
vn 0 0 1
vn 0 0 1
vn 0 0 1
vn 0 0 1
vn 0 0 1
vn 0 0 1
vn 0 0 1
vn 0 0 1
vn 0 0 1
vn 0 0 1
vn -0.70710676908493042 0.70710676908493042 0
vn -0.70710676908493042 0.70710676908493042 0
vn -0.70710676908493042 0.70710676908493042 0
vn -0.70710676908493042 0.70710676908493042 0
vn 0 0 -1
vn 0 0 -1
vn 0 0 -1
vn 0 0 -1
vn 0 0 -1
vn 0 0 -1
vn 0 0 -1
vn 0 0 -1
vn 0 0 -1
vn 0 0 -1
vn 0 0 -1
vn 0 0 -1
vn 0 0 -1
vn 0 0 -1
vn 0 0 -1
vn 0 0 -1
vn 0 0 -1
vn 0 0 -1
vn 0 0 -1
vn 0 0 -1
vn 0 0 -1
vn 0 0 -1
vn 0 0 -1
vn 0 0 -1
vn 0 0 -1
vn 0 0 -1
vn 0 0 -1
vn 0 0 -1
vn 0 0 -1
vn 0 0 -1
vn 0 0 -1
vn 0 0 -1
vn 0 0 -1
vn 0 0 -1
vn 0 0 -1
vn 0 0 -1
vn 0 0 -1
vn 0 0 -1
vn 0 0 -1
vn 0 0 -1
vn 0.70710676908493042 -0.70710676908493042 0
vn 0.70710676908493042 -0.70710676908493042 0
vn 0.70710676908493042 -0.70710676908493042 0
vn 0.70710676908493042 -0.70710676908493042 0
vn 0.70710676908493042 0.70710676908493042 0
vn 0.70710676908493042 0.70710676908493042 0
vn 0.70710676908493042 0.70710676908493042 0
vn 0.70710676908493042 0.70710676908493042 0
vn -0.70710676908493042 -0.70710676908493042 0
vn -0.70710676908493042 -0.70710676908493042 0
vn -0.70710676908493042 -0.70710676908493042 0
vn -0.70710676908493042 -0.70710676908493042 0
f 5/5/5 7/7/7 34/34/34 33/33/33
f 34/34/34 35/35/35 37/37/37 36/36/36
f 37/37/37 38/38/38 40/40/40 39/39/39
f 6/6/6 8/8/8 7/7/7 5/5/5
f 9/9/9 11/11/11 10/10/10 8/8/8
f 12/12/12 14/14/14 13/13/13 11/11/11
f 24/24/24 23/23/23 21/21/21 22/22/22
f 21/21/21 20/20/20 18/18/18 19/19/19
f 18/18/18 17/17/17 15/15/15 16/16/16
f 30/30/30 29/29/29 31/31/31 32/32/32
f 27/27/27 26/26/26 28/28/28 29/29/29
f 16/16/16 15/15/15 25/25/25 26/26/26
f 39/39/39 40/40/40 1/1/1
f 38/38/38 1/1/1 40/40/40
f 35/35/35 38/38/38 37/37/37
f 36/36/36 37/37/37 39/39/39
f 1/1/1 38/38/38 13/13/13 3/3/3
f 2/2/2 31/31/31 39/39/39 1/1/1
f 35/35/35 34/34/34 7/7/7
f 36/36/36 33/33/33 34/34/34
f 7/7/7 10/10/10 35/35/35
f 36/36/36 39/39/39 31/31/31 28/28/28
f 38/38/38 35/35/35 10/10/10 13/13/13
f 33/33/33 36/36/36 28/28/28 25/25/25
f 29/29/29 28/28/28 31/31/31
f 2/2/2 32/32/32 31/31/31
f 30/30/30 32/32/32 2/2/2
f 25/25/25 28/28/28 26/26/26
f 30/30/30 27/27/27 29/29/29
f 26/26/26 27/27/27 16/16/16
f 22/22/22 19/19/19 27/27/27 30/30/30
f 5/5/5 33/33/33 25/25/25 15/15/15
f 4/4/4 22/22/22 30/30/30 2/2/2
f 15/15/15 17/17/17 6/6/6 5/5/5
f 8/8/8 6/6/6 9/9/9
f 10/10/10 11/11/11 13/13/13
f 10/10/10 7/7/7 8/8/8
f 12/12/12 3/3/3 14/14/14
f 13/13/13 14/14/14 3/3/3
f 9/9/9 12/12/12 11/11/11
f 17/17/17 20/20/20 9/9/9 6/6/6
f 20/20/20 23/23/23 12/12/12 9/9/9
f 3/3/3 12/12/12 23/23/23 4/4/4
f 17/17/17 18/18/18 20/20/20
f 16/16/16 19/19/19 18/18/18
f 27/27/27 19/19/19 16/16/16
f 20/20/20 21/21/21 23/23/23
f 4/4/4 24/24/24 22/22/22
f 23/23/23 24/24/24 4/4/4
f 19/19/19 22/22/22 21/21/21
f 42/42/42 44/44/44 43/43/43 41/41/41
f 49/49/49 51/51/51 78/78/78 77/77/77
f 78/78/78 79/79/79 81/81/81 80/80/80
f 81/81/81 82/82/82 84/84/84 83/83/83
f 50/50/50 52/52/52 51/51/51 49/49/49
f 53/53/53 55/55/55 54/54/54 52/52/52
f 56/56/56 58/58/58 57/57/57 55/55/55
f 68/68/68 67/67/67 65/65/65 66/66/66
f 65/65/65 64/64/64 62/62/62 63/63/63
f 62/62/62 61/61/61 59/59/59 60/60/60
f 74/74/74 73/73/73 75/75/75 76/76/76
f 71/71/71 70/70/70 72/72/72 73/73/73
f 60/60/60 59/59/59 69/69/69 70/70/70
f 83/83/83 84/84/84 45/45/45
f 82/82/82 45/45/45 84/84/84
f 79/79/79 82/82/82 81/81/81
f 80/80/80 81/81/81 83/83/83
f 57/57/57 47/47/47 45/45/45 82/82/82
f 46/46/46 75/75/75 83/83/83 45/45/45
f 79/79/79 78/78/78 51/51/51
f 80/80/80 77/77/77 78/78/78
f 51/51/51 54/54/54 79/79/79
f 77/77/77 80/80/80 72/72/72 69/69/69
f 54/54/54 57/57/57 82/82/82 79/79/79
f 80/80/80 83/83/83 75/75/75 72/72/72
f 73/73/73 72/72/72 75/75/75
f 46/46/46 76/76/76 75/75/75
f 74/74/74 76/76/76 46/46/46
f 69/69/69 72/72/72 70/70/70
f 74/74/74 71/71/71 73/73/73
f 70/70/70 71/71/71 60/60/60
f 71/71/71 74/74/74 66/66/66 63/63/63
f 49/49/49 77/77/77 69/69/69 59/59/59
f 74/74/74 46/46/46 48/48/48 66/66/66
f 59/59/59 61/61/61 50/50/50 49/49/49
f 52/52/52 50/50/50 53/53/53
f 54/54/54 55/55/55 57/57/57
f 54/54/54 51/51/51 52/52/52
f 56/56/56 47/47/47 58/58/58
f 53/53/53 56/56/56 55/55/55
f 61/61/61 64/64/64 53/53/53 50/50/50
f 64/64/64 67/67/67 56/56/56 53/53/53
f 47/47/47 57/57/57 58/58/58
f 47/47/47 56/56/56 67/67/67 48/48/48
f 61/61/61 62/62/62 64/64/64
f 60/60/60 63/63/63 62/62/62
f 71/71/71 63/63/63 60/60/60
f 64/64/64 65/65/65 67/67/67
f 48/48/48 68/68/68 66/66/66
f 67/67/67 68/68/68 48/48/48
f 63/63/63 66/66/66 65/65/65
f 86/86/86 88/88/88 87/87/87 85/85/85
f 90/90/90 92/92/92 91/91/91 89/89/89
f 94/94/94 93/93/93 95/95/95 96/96/96
usemtl diffuse_0
v -1.25 -0.5 0.30000001192092896
v -1.25 -0.5 0.5
v 0.5 -0.5 0.30000001192092896
v 0.5 -0.5 0.5
v 0.5 -0.5 0.30000001192092896
v 0.5 -0.5 0.5
v 0.5 -0.44999998807907104 0.30000001192092896
v 0.5 -0.44999998807907104 0.5
v 0.5 -0.44999998807907104 0.30000001192092896
v 0.5 -0.44999998807907104 0.5
v -1.25 -0.44999998807907104 0.30000001192092896
v -1.25 -0.44999998807907104 0.5
v -1.25 -0.44999998807907104 0.30000001192092896
v -1.25 -0.44999998807907104 0.5
v -1.25 -0.5 0.30000001192092896
v -1.25 -0.5 0.5
v -1.25 -0.5 0.30000001192092896
v 0.5 -0.5 0.30000001192092896
v 0.5 -0.44999998807907104 0.30000001192092896
v -1.25 -0.44999998807907104 0.30000001192092896
v -1.25 -0.5 0.5
v 0.5 -0.5 0.5
v 0.5 -0.44999998807907104 0.5
v -1.25 -0.44999998807907104 0.5
vt 0 0
vt 0 0.83333265781402588
vt 0.4761904776096344 0
vt 0.4761904776096344 0.83333265781402588
vt 0.4761904776096344 0
vt 0.4761904776096344 0.83333265781402588
vt 0.5 0
vt 0.5 0.83333265781402588
vt 0.5 0
vt 0.5 0.83333265781402588
vt 0.97619044780731201 0
vt 0.97619044780731201 0.83333265781402588
vt 0.97619044780731201 0
vt 0.97619044780731201 0.83333265781402588
vt 1 0
vt 1 0.83333265781402588
vt 0 1
vt 0.4861111044883728 1
vt 0.4861111044883728 0.83333349227905273
vt 0 0.83333349227905273
vt 0.5138888955116272 0.83333349227905273
vt 1 0.83333349227905273
vt 1 1
vt 0.5138888955116272 1
vn 0 -1 0
vn 0 -1 0
vn 0 -1 0
vn 0 -1 0
vn 1 0 0
vn 1 0 0
vn 1 0 0
vn 1 0 0
vn 0 1 0
vn 0 1 0
vn 0 1 0
vn 0 1 0
vn -1 0 0
vn -1 0 0
vn -1 0 0
vn -1 0 0
vn 0 0 -1
vn 0 0 -1
vn 0 0 -1
vn 0 0 -1
vn 0 0 1
vn 0 0 1
vn 0 0 1
vn 0 0 1
f 97/97/97 99/99/99 100/100/100 98/98/98
f 101/101/101 103/103/103 104/104/104 102/102/102
f 105/105/105 107/107/107 108/108/108 106/106/106
f 109/109/109 111/111/111 112/112/112 110/110/110
f 114/114/114 113/113/113 116/116/116
f 116/116/116 115/115/115 114/114/114
f 118/118/118 120/120/120 117/117/117
f 120/120/120 118/118/118 119/119/119
usemtl diffuse_0
v -0.44999998807907104 -1.25 0.30000001192092896
v -0.44999998807907104 -1.25 0.5
v -0.44999998807907104 0.5 0.30000001192092896
v -0.44999998807907104 0.5 0.5
v -0.44999998807907104 0.5 0.30000001192092896
v -0.44999998807907104 0.5 0.5
v -0.5 0.5 0.30000001192092896
v -0.5 0.5 0.5
v -0.5 0.5 0.30000001192092896
v -0.5 0.5 0.5
v -0.5 -1.25 0.30000001192092896
v -0.5 -1.25 0.5
v -0.5 -1.25 0.30000001192092896
v -0.5 -1.25 0.5
v -0.44999998807907104 -1.25 0.30000001192092896
v -0.44999998807907104 -1.25 0.5
v -0.44999998807907104 -1.25 0.30000001192092896
v -0.44999998807907104 0.5 0.30000001192092896
v -0.5 0.5 0.30000001192092896
v -0.5 -1.25 0.30000001192092896
v -0.44999998807907104 -1.25 0.5
v -0.44999998807907104 0.5 0.5
v -0.5 0.5 0.5
v -0.5 -1.25 0.5
vt 0 0
vt 0 0.83333265781402588
vt 0.4761904776096344 0
vt 0.4761904776096344 0.83333265781402588
vt 0.4761904776096344 0
vt 0.4761904776096344 0.83333265781402588
vt 0.5 0
vt 0.5 0.83333265781402588
vt 0.5 0
vt 0.5 0.83333265781402588
vt 0.97619044780731201 0
vt 0.97619044780731201 0.83333265781402588
vt 0.97619044780731201 0
vt 0.97619044780731201 0.83333265781402588
vt 1 0
vt 1 0.83333265781402588
vt 0 1
vt 0.4861111044883728 1
vt 0.4861111044883728 0.83333349227905273
vt 0 0.83333349227905273
vt 0.5138888955116272 0.83333349227905273
vt 1 0.83333349227905273
vt 1 1
vt 0.5138888955116272 1
vn 1 0 0
vn 1 0 0
vn 1 0 0
vn 1 0 0
vn 0 1 0
vn 0 1 0
vn 0 1 0
vn 0 1 0
vn -1 0 0
vn -1 0 0
vn -1 0 0
vn -1 0 0
vn 0 -1 0
vn 0 -1 0
vn 0 -1 0
vn 0 -1 0
vn 0 0 -1
vn 0 0 -1
vn 0 0 -1
vn 0 0 -1
vn 0 0 1
vn 0 0 1
vn 0 0 1
vn 0 0 1
f 121/121/121 123/123/123 124/124/124 122/122/122
f 125/125/125 127/127/127 128/128/128 126/126/126
f 129/129/129 131/131/131 132/132/132 130/130/130
f 133/133/133 135/135/135 136/136/136 134/134/134
f 138/138/138 137/137/137 140/140/140
f 140/140/140 139/139/139 138/138/138
f 142/142/142 144/144/144 141/141/141
f 144/144/144 142/142/142 143/143/143
usemtl diffuse_0
v -0.4999999999989666 -0.50000000000166844 0.50000000000642508
v -0.49999999999896699 -0.30000000000166843 0.50000000000642508
v -0.44999999999935664 -0.30000000000166832 0.50000000000642508
cstype bspline
deg 1
curv 0 0.24999999999961037 145 146 147
parm u 0 0 0.20000000000000001 0.24999999999961037 0.24999999999961037
end
usemtl diffuse_0
v -0.4999999999989666 -0.50000000000166844 0.50000000000642508
v -0.29999999999896659 -0.49999999999989325 0.499999999998121
v -0.29999999999896654 -0.45000000000063023 0.49999999999974581
cstype bspline
deg 1
curv 0 0.24999999999926303 148 149 150
parm u 0 0 0.20000000000000001 0.24999999999926303 0.24999999999926303
end
