# Rhino

mtllib t_18.mtl
usemtl diffuse_0
v -0.5 0.52499997615814209 0.64999997615814209
v -0.5 0.52499997615814209 0.79999995231628418
v 0.5 0.52499997615814209 0.64999997615814209
v 0.5 0.52499997615814209 0.79999995231628418
v 0.5 -0.5 0.64999997615814209
v 0.5 0.52499997615814209 0.64999997615814209
v -0.5 0.52499997615814209 0.64999997615814209
v -0.5 -0.5 0.64999997615814209
v 0.5 -0.5 0.5
v 0.5 0.60000002384185791 0.5
v 0.5 0.60000002384185791 0.79999995231628418
v 0.5 0.52499997615814209 0.79999995231628418
v 0.5 0.52499997615814209 0.64999997615814209
v 0.5 -0.5 0.64999997615814209
v 0.5 0.52499997615814209 0.79999995231628418
v -0.5 0.52499997615814209 0.79999995231628418
v 0.5 0.60000002384185791 0.79999995231628418
v -0.5 0.60000002384185791 0.79999995231628418
v -0.5 -0.5 0.5
v 0.5 -0.5 0.5
v 0.5 -0.5 0.64999997615814209
v -0.5 -0.5 0.64999997615814209
v 0.5 0.60000002384185791 0.5
v 0.5 0.60000002384185791 0.79999995231628418
v -0.5 0.60000002384185791 0.5
v -0.5 0.60000002384185791 0.79999995231628418
v -0.5 0.60000002384185791 0.5
v -0.5 0.52499997615814209 0.79999995231628418
v -0.5 0.52499997615814209 0.64999997615814209
v -0.5 -0.5 0.5
v -0.5 -0.5 0.64999997615814209
v -0.5 0.60000002384185791 0.79999995231628418
v 0.5 -0.5 0.5
v 0.5 0.60000002384185791 0.5
v -0.5 0.60000002384185791 0.5
v -0.5 -0.5 0.5
vt 0.16337031126022339 0.43956050276756287
vt 0.098901093006134033 0.43956050276756287
vt 0.16337031126022339 0.87912100553512573
vt 0.098901093006134033 0.87912100553512573
vt 0 0
vt 0.45054951310157776 0
vt 0.45054951310157776 0.43809565901756287
vt 0 0.43809565901756287
vt 0.99853515625 0
vt 0.99853515625 0.48351654410362244
vt 0.86813187599182129 0.48351654410362244
vt 0.86813187599182129 0.45054951310157776
vt 0.93333351612091064 0.45054951310157776
vt 0.93333351612091064 0
vt 0 0.43956050276756287
vt 0 0.87912100553512573
vt 0.031502194702625275 0.43956050276756287
vt 0.031502194702625275 0.87912100553512573
vt 0.097436249256134033 0.43956050276756287
vt 0.097436249256134033 0.87912100553512573
vt 0.032967038452625275 0.87912100553512573
vt 0.032967038452625275 0.43956050276756287
vt 0.2952384352684021 0.43956050276756287
vt 0.16483515501022339 0.43956050276756287
vt 0.2952384352684021 0.87912100553512573
vt 0.16483515501022339 0.87912100553512573
vt 0.86666703224182129 0.48351654410362244
vt 0.73626375198364258 0.45054951310157776
vt 0.80146539211273193 0.45054951310157776
vt 0.86666703224182129 0
vt 0.80146539211273193 0
vt 0.73626375198364258 0.48351654410362244
vt 0.73479890823364258 0.43956050276756287
vt 0.73479890823364258 0.9216122031211853
vt 0.2967032790184021 0.9216122031211853
vt 0.2967032790184021 0.43956050276756287
vn 0 -1 0
vn 0 -1 0
vn 0 -1 0
vn 0 -1 0
vn 0 0 1
vn 0 0 1
vn 0 0 1
vn 0 0 1
vn 1 0 0
vn 1 0 0
vn 1 0 0
vn 1 0 0
vn 1 0 0
vn 1 0 0
vn 0 0 1
vn 0 0 1
vn 0 0 1
vn 0 0 1
vn 0 -1 0
vn 0 -1 0
vn 0 -1 0
vn 0 -1 0
vn 0 1 0
vn 0 1 0
vn 0 1 0
vn 0 1 0
vn -1 0 0
vn -1 0 0
vn -1 0 0
vn -1 0 0
vn -1 0 0
vn -1 0 0
vn 0 0 -1
vn 0 0 -1
vn 0 0 -1
vn 0 0 -1
f 2/2/2 1/1/1 3/3/3 4/4/4
f 8/8/8 5/5/5 6/6/6 7/7/7
f 13/13/13 14/14/14 9/9/9 10/10/10
f 12/12/12 13/13/13 11/11/11
f 10/10/10 11/11/11 13/13/13
f 16/16/16 15/15/15 17/17/17 18/18/18
f 22/22/22 19/19/19 20/20/20 21/21/21
f 24/24/24 23/23/23 25/25/25 26/26/26
f 31/31/31 29/29/29 30/30/30
f 27/27/27 30/30/30 29/29/29
f 28/28/28 32/32/32 29/29/29
f 27/27/27 29/29/29 32/32/32
f 36/36/36 35/35/35 34/34/34 33/33/33
usemtl diffuse_0
v -0.5 0.5 -0.5
v 0.5 0.5 -0.5
v -0.5 0.5 0.5
v 0.5 0.5 0.5
vt 0 0
vt 0 1
vt 1 0
vt 1 1
vn 0 1 0
vn 0 1 0
vn 0 1 0
vn 0 1 0
f 40/40/40 38/38/38 37/37/37 39/39/39
usemtl diffuse_0
v -0.27140852808952332 0.5 -0.16160361468791962
v -0.27140852808952332 0.5 0.5
v -0.16581182181835175 0.5 -0.16160361468791962
v -0.16581182181835175 0.5 0.5
v -0.16581182181835175 0.5 -0.16160361468791962
v -0.16581182181835175 0.5 0.5
v -0.16581182181835175 0.55000001192092896 -0.16160361468791962
v -0.16581182181835175 0.55000001192092896 0.5
v -0.16581182181835175 0.55000001192092896 -0.16160361468791962
v -0.16581182181835175 0.55000001192092896 0.5
v -0.27140852808952332 0.55000001192092896 -0.16160361468791962
v -0.27140852808952332 0.55000001192092896 0.5
v -0.27140852808952332 0.55000001192092896 -0.16160361468791962
v -0.27140852808952332 0.55000001192092896 0.5
v -0.27140852808952332 0.5 -0.16160361468791962
v -0.27140852808952332 0.5 0.5
v -0.27140852808952332 0.5 -0.16160361468791962
v -0.16581182181835175 0.5 -0.16160361468791962
v -0.16581182181835175 0.55000001192092896 -0.16160361468791962
v -0.27140852808952332 0.55000001192092896 -0.16160361468791962
v -0.27140852808952332 0.5 0.5
v -0.16581182181835175 0.5 0.5
v -0.16581182181835175 0.55000001192092896 0.5
v -0.27140852808952332 0.55000001192092896 0.5
vt 0 0
vt 0 1
vt 0.29280063509941101 0
vt 0.29280063509941101 1
vt 0.29280063509941101 0
vt 0.29280063509941101 1
vt 0.43920096755027771 0
vt 0.43920096755027771 1
vt 0.43920096755027771 0
vt 0.43920096755027771 1
vt 0.73200160264968872 0
vt 0.73200160264968872 1
vt 0.73200160264968872 0
vt 0.73200160264968872 1
vt 0.87840193510055542 0
vt 0.87840193510055542 1
vt 1 0.15960720181465149
vt 1 0
vt 0.87840282917022705 0
vt 0.87840282917022705 0.15960720181465149
vt 1 0.84039276838302612
vt 1 1
vt 0.87840282917022705 1
vt 0.87840282917022705 0.84039276838302612
vn 0 -1 0
vn 0 -1 0
vn 0 -1 0
vn 0 -1 0
vn 1 0 0
vn 1 0 0
vn 1 0 0
vn 1 0 0
vn 0 1 0
vn 0 1 0
vn 0 1 0
vn 0 1 0
vn -1 0 0
vn -1 0 0
vn -1 0 0
vn -1 0 0
vn 0 0 -1
vn 0 0 -1
vn 0 0 -1
vn 0 0 -1
vn 0 0 1
vn 0 0 1
vn 0 0 1
vn 0 0 1
f 41/41/41 43/43/43 44/44/44 42/42/42
f 45/45/45 47/47/47 48/48/48 46/46/46
f 49/49/49 51/51/51 52/52/52 50/50/50
f 53/53/53 55/55/55 56/56/56 54/54/54
f 58/58/58 57/57/57 60/60/60
f 60/60/60 59/59/59 58/58/58
f 62/62/62 64/64/64 61/61/61
f 64/64/64 62/62/62 63/63/63
usemtl diffuse_0
v 0.13692708313465118 0.5 0.023237902671098709
v 0.13692708313465118 0.5 0.5
v 0.21692708134651184 0.5 0.023237902671098709
v 0.21692708134651184 0.5 0.5
v 0.21692708134651184 0.5 0.023237902671098709
v 0.21692708134651184 0.5 0.5
v 0.21692708134651184 0.55000001192092896 0.023237902671098709
v 0.21692708134651184 0.55000001192092896 0.5
v 0.21692708134651184 0.55000001192092896 0.023237902671098709
v 0.21692708134651184 0.55000001192092896 0.5
v 0.13692708313465118 0.55000001192092896 0.023237902671098709
v 0.13692708313465118 0.55000001192092896 0.5
v 0.13692708313465118 0.55000001192092896 0.023237902671098709
v 0.13692708313465118 0.55000001192092896 0.5
v 0.13692708313465118 0.5 0.023237902671098709
v 0.13692708313465118 0.5 0.5
v 0.13692708313465118 0.5 0.023237902671098709
v 0.21692708134651184 0.5 0.023237902671098709
v 0.21692708134651184 0.55000001192092896 0.023237902671098709
v 0.13692708313465118 0.55000001192092896 0.023237902671098709
v 0.13692708313465118 0.5 0.5
v 0.21692708134651184 0.5 0.5
v 0.21692708134651184 0.55000001192092896 0.5
v 0.13692708313465118 0.55000001192092896 0.5
vt 0 0
vt 0 1
vt 0.28703677654266357 0
vt 0.28703677654266357 1
vt 0.28703677654266357 0
vt 0.28703677654266357 1
vt 0.43055519461631775 0
vt 0.43055519461631775 1
vt 0.43055519461631775 0
vt 0.43055519461631775 1
vt 0.71759200096130371 0
vt 0.71759200096130371 1
vt 0.71759200096130371 0
vt 0.71759200096130371 1
vt 0.8611103892326355 0
vt 0.8611103892326355 1
vt 1 0.16779857873916626
vt 1 0
vt 0.86111122369766235 0
vt 0.86111122369766235 0.16779857873916626
vt 1 0.83220142126083374
vt 1 1
vt 0.86111122369766235 1
vt 0.86111122369766235 0.83220142126083374
vn 0 -1 0
vn 0 -1 0
vn 0 -1 0
vn 0 -1 0
vn 1 0 0
vn 1 0 0
vn 1 0 0
vn 1 0 0
vn 0 1 0
vn 0 1 0
vn 0 1 0
vn 0 1 0
vn -1 0 0
vn -1 0 0
vn -1 0 0
vn -1 0 0
vn 0 0 -1
vn 0 0 -1
vn 0 0 -1
vn 0 0 -1
vn 0 0 1
vn 0 0 1
vn 0 0 1
vn 0 0 1
f 65/65/65 67/67/67 68/68/68 66/66/66
f 69/69/69 71/71/71 72/72/72 70/70/70
f 73/73/73 75/75/75 76/76/76 74/74/74
f 77/77/77 79/79/79 80/80/80 78/78/78
f 82/82/82 81/81/81 84/84/84
f 84/84/84 83/83/83 82/82/82
f 86/86/86 88/88/88 85/85/85
f 88/88/88 86/86/86 87/87/87
usemtl diffuse_0
v -0.11308430135250092 0.5 0.5
v -0.11308430135250092 0.5 0.24760109186172485
v -0.11308430135250092 0.55000001192092896 0.5
v -0.11308430135250092 0.55000001192092896 0.24760109186172485
v -0.11308430135250092 0.55000001192092896 0.5
v -0.11308430135250092 0.55000001192092896 0.24760109186172485
v -0.063224799931049347 0.55000001192092896 0.5
v -0.063224799931049347 0.55000001192092896 0.24760109186172485
v -0.063224799931049347 0.55000001192092896 0.5
v -0.063224799931049347 0.55000001192092896 0.24760109186172485
v -0.063224799931049347 0.5 0.5
v -0.063224799931049347 0.5 0.24760109186172485
v -0.063224799931049347 0.5 0.5
v -0.063224799931049347 0.5 0.24760109186172485
v -0.11308430135250092 0.5 0.5
v -0.11308430135250092 0.5 0.24760109186172485
v -0.11308430135250092 0.5 0.5
v -0.11308430135250092 0.55000001192092896 0.5
v -0.063224799931049347 0.55000001192092896 0.5
v -0.063224799931049347 0.5 0.5
v -0.11308430135250092 0.5 0.24760109186172485
v -0.11308430135250092 0.55000001192092896 0.24760109186172485
v -0.063224799931049347 0.55000001192092896 0.24760109186172485
v -0.063224799931049347 0.5 0.24760109186172485
vt 0 0
vt 0 1
vt 0.1620420515537262 0
vt 0.1620420515537262 1
vt 0.1620420515537262 0
vt 0.1620420515537262 1
vt 0.41674453020095825 0
vt 0.41674453020095825 1
vt 0.41674453020095825 0
vt 0.41674453020095825 1
vt 0.57878655195236206 0
vt 0.57878655195236206 1
vt 0.57878655195236206 0
vt 0.57878655195236206 1
vt 0.8334890604019165 0
vt 0.8334890604019165 1
vt 1 0.19809910655021667
vt 1 0
vt 0.83348989486694336 0
vt 0.83348989486694336 0.19809910655021667
vt 1 0.80190086364746094
vt 1 1
vt 0.83348989486694336 1
vt 0.83348989486694336 0.80190086364746094
vn -1 0 0
vn -1 0 0
vn -1 0 0
vn -1 0 0
vn 0 1 0
vn 0 1 0
vn 0 1 0
vn 0 1 0
vn 1 0 0
vn 1 0 0
vn 1 0 0
vn 1 0 0
vn 0 -1 0
vn 0 -1 0
vn 0 -1 0
vn 0 -1 0
vn 0 0 1
vn 0 0 1
vn 0 0 1
vn 0 0 1
vn 0 0 -1
vn 0 0 -1
vn 0 0 -1
vn 0 0 -1
f 89/89/89 91/91/91 92/92/92 90/90/90
f 93/93/93 95/95/95 96/96/96 94/94/94
f 97/97/97 99/99/99 100/100/100 98/98/98
f 101/101/101 103/103/103 104/104/104 102/102/102
f 106/106/106 105/105/105 108/108/108
f 108/108/108 107/107/107 106/106/106
f 110/110/110 112/112/112 109/109/109
f 112/112/112 110/110/110 111/111/111
usemtl diffuse_0
v -0.025892280042171478 0.5 0.10000000149011612
v -0.025892280042171478 0.5 0.5
v 0.054107721894979477 0.5 0.10000000149011612
v 0.054107721894979477 0.5 0.5
v 0.054107721894979477 0.5 0.10000000149011612
v 0.054107721894979477 0.5 0.5
v 0.054107721894979477 0.55000001192092896 0.10000000149011612
v 0.054107721894979477 0.55000001192092896 0.5
v 0.054107721894979477 0.55000001192092896 0.10000000149011612
v 0.054107721894979477 0.55000001192092896 0.5
v -0.025892280042171478 0.55000001192092896 0.10000000149011612
v -0.025892280042171478 0.55000001192092896 0.5
v -0.025892280042171478 0.55000001192092896 0.10000000149011612
v -0.025892280042171478 0.55000001192092896 0.5
v -0.025892280042171478 0.5 0.10000000149011612
v -0.025892280042171478 0.5 0.5
v -0.025892280042171478 0.5 0.10000000149011612
v 0.054107721894979477 0.5 0.10000000149011612
v 0.054107721894979477 0.55000001192092896 0.10000000149011612
v -0.025892280042171478 0.55000001192092896 0.10000000149011612
v -0.025892280042171478 0.5 0.5
v 0.054107721894979477 0.5 0.5
v 0.054107721894979477 0.55000001192092896 0.5
v -0.025892280042171478 0.55000001192092896 0.5
vt 0 0
vt 0 1
vt 0.28703677654266357 0
vt 0.28703677654266357 1
vt 0.28703677654266357 0
vt 0.28703677654266357 1
vt 0.43055519461631775 0
vt 0.43055519461631775 1
vt 0.43055519461631775 0
vt 0.43055519461631775 1
vt 0.71759200096130371 0
vt 0.71759200096130371 1
vt 0.71759200096130371 0
vt 0.71759200096130371 1
vt 0.8611103892326355 0
vt 0.8611103892326355 1
vt 1 0.20000000298023224
vt 1 0
vt 0.86111122369766235 0
vt 0.86111122369766235 0.20000000298023224
vt 1 0.80000001192092896
vt 1 1
vt 0.86111122369766235 1
vt 0.86111122369766235 0.80000001192092896
vn 0 -1 0
vn 0 -1 0
vn 0 -1 0
vn 0 -1 0
vn 1 0 0
vn 1 0 0
vn 1 0 0
vn 1 0 0
vn 0 1 0
vn 0 1 0
vn 0 1 0
vn 0 1 0
vn -1 0 0
vn -1 0 0
vn -1 0 0
vn -1 0 0
vn 0 0 -1
vn 0 0 -1
vn 0 0 -1
vn 0 0 -1
vn 0 0 1
vn 0 0 1
vn 0 0 1
vn 0 0 1
f 113/113/113 115/115/115 116/116/116 114/114/114
f 117/117/117 119/119/119 120/120/120 118/118/118
f 121/121/121 123/123/123 124/124/124 122/122/122
f 125/125/125 127/127/127 128/128/128 126/126/126
f 130/130/130 129/129/129 132/132/132
f 132/132/132 131/131/131 130/130/130
f 134/134/134 136/136/136 133/133/133
f 136/136/136 134/134/134 135/135/135
usemtl diffuse_0
v -0.34999999403953552 0.5 0.5
v -0.34999999403953552 0.5 0.34179621934890747
v -0.34999999403953552 0.55000001192092896 0.5
v -0.34999999403953552 0.55000001192092896 0.34179621934890747
v -0.34999999403953552 0.55000001192092896 0.5
v -0.34999999403953552 0.55000001192092896 0.34179621934890747
v -0.27140852808952332 0.55000001192092896 0.5
v -0.27140852808952332 0.55000001192092896 0.34179621934890747
v -0.27140852808952332 0.55000001192092896 0.5
v -0.27140852808952332 0.55000001192092896 0.34179621934890747
v -0.27140852808952332 0.5 0.5
v -0.27140852808952332 0.5 0.34179621934890747
v -0.27140852808952332 0.5 0.5
v -0.27140852808952332 0.5 0.34179621934890747
v -0.34999999403953552 0.5 0.5
v -0.34999999403953552 0.5 0.34179621934890747
v -0.34999999403953552 0.5 0.5
v -0.34999999403953552 0.55000001192092896 0.5
v -0.27140852808952332 0.55000001192092896 0.5
v -0.27140852808952332 0.5 0.5
v -0.34999999403953552 0.5 0.34179621934890747
v -0.34999999403953552 0.55000001192092896 0.34179621934890747
v -0.27140852808952332 0.55000001192092896 0.34179621934890747
v -0.27140852808952332 0.5 0.34179621934890747
vt 0 0
vt 0 0.8063538670539856
vt 0.19441412389278412 0
vt 0.19441412389278412 0.8063538670539856
vt 0.19441412389278412 0
vt 0.19441412389278412 0.8063538670539856
vt 0.5 0
vt 0.5 0.8063538670539856
vt 0.5 0
vt 0.5 0.8063538670539856
vt 0.69441413879394531 0
vt 0.69441413879394531 0.8063538670539856
vt 0.69441413879394531 0
vt 0.69441413879394531 0.8063538670539856
vt 1 0
vt 1 0.8063538670539856
vt 0.30558586120605469 1
vt 0.30558586120605469 0.80635464191436768
vt 0 0.80635464191436768
vt 0 1
vt 1 0.80635464191436768
vt 1 1
vt 0.69441413879394531 1
vt 0.69441413879394531 0.80635464191436768
vn -1 0 0
vn -1 0 0
vn -1 0 0
vn -1 0 0
vn 0 1 0
vn 0 1 0
vn 0 1 0
vn 0 1 0
vn 1 0 0
vn 1 0 0
vn 1 0 0
vn 1 0 0
vn 0 -1 0
vn 0 -1 0
vn 0 -1 0
vn 0 -1 0
vn 0 0 1
vn 0 0 1
vn 0 0 1
vn 0 0 1
vn 0 0 -1
vn 0 0 -1
vn 0 0 -1
vn 0 0 -1
f 137/137/137 139/139/139 140/140/140 138/138/138
f 141/141/141 143/143/143 144/144/144 142/142/142
f 145/145/145 147/147/147 148/148/148 146/146/146
f 149/149/149 151/151/151 152/152/152 150/150/150
f 154/154/154 153/153/153 156/156/156
f 156/156/156 155/155/155 154/154/154
f 158/158/158 160/160/160 157/157/157
f 160/160/160 158/158/158 159/159/159
usemtl diffuse_0
v 0.21692708134651184 0.5 -0.35801950097084045
v 0.21692708134651184 0.5 0.5
v 0.31692707538604736 0.5 -0.35801950097084045
v 0.31692707538604736 0.5 0.5
v 0.31692707538604736 0.5 -0.35801950097084045
v 0.31692707538604736 0.5 0.5
v 0.31692707538604736 0.55000001192092896 -0.35801950097084045
v 0.31692707538604736 0.55000001192092896 0.5
v 0.31692707538604736 0.55000001192092896 -0.35801950097084045
v 0.31692707538604736 0.55000001192092896 0.5
v 0.21692708134651184 0.55000001192092896 -0.35801950097084045
v 0.21692708134651184 0.55000001192092896 0.5
v 0.21692708134651184 0.55000001192092896 -0.35801950097084045
v 0.21692708134651184 0.55000001192092896 0.5
v 0.21692708134651184 0.5 -0.35801950097084045
v 0.21692708134651184 0.5 0.5
v 0.21692708134651184 0.5 -0.35801950097084045
v 0.31692707538604736 0.5 -0.35801950097084045
v 0.31692707538604736 0.55000001192092896 -0.35801950097084045
v 0.21692708134651184 0.55000001192092896 -0.35801950097084045
v 0.21692708134651184 0.5 0.5
v 0.31692707538604736 0.5 0.5
v 0.31692707538604736 0.55000001192092896 0.5
v 0.21692708134651184 0.55000001192092896 0.5
vt 0 0
vt 0 1
vt 0.2916664183139801 0
vt 0.2916664183139801 1
vt 0.2916664183139801 0
vt 0.2916664183139801 1
vt 0.43749961256980896 0
vt 0.43749961256980896 1
vt 0.43749961256980896 0
vt 0.43749961256980896 1
vt 0.72916603088378906 0
vt 0.72916603088378906 1
vt 0.72916603088378906 0
vt 0.72916603088378906 1
vt 0.87499922513961792 0
vt 0.87499922513961792 1
vt 1 0.11654746532440186
vt 1 0
vt 0.87500011920928955 0
vt 0.87500011920928955 0.11654746532440186
vt 1 0.88345253467559814
vt 1 1
vt 0.87500011920928955 1
vt 0.87500011920928955 0.88345253467559814
vn 0 -1 0
vn 0 -1 0
vn 0 -1 0
vn 0 -1 0
vn 1 0 0
vn 1 0 0
vn 1 0 0
vn 1 0 0
vn 0 1 0
vn 0 1 0
vn 0 1 0
vn 0 1 0
vn -1 0 0
vn -1 0 0
vn -1 0 0
vn -1 0 0
vn 0 0 -1
vn 0 0 -1
vn 0 0 -1
vn 0 0 -1
vn 0 0 1
vn 0 0 1
vn 0 0 1
vn 0 0 1
f 161/161/161 163/163/163 164/164/164 162/162/162
f 165/165/165 167/167/167 168/168/168 166/166/166
f 169/169/169 171/171/171 172/172/172 170/170/170
f 173/173/173 175/175/175 176/176/176 174/174/174
f 178/178/178 177/177/177 180/180/180
f 180/180/180 179/179/179 178/178/178
f 182/182/182 184/184/184 181/181/181
f 184/184/184 182/182/182 183/183/183
usemtl diffuse_0
v -0.5 0.5 -0.5
v -0.5 0.5 0.5
v -0.34999999403953552 0.5 -0.5
v -0.34999999403953552 0.5 0.5
v -0.34999999403953552 0.5 -0.5
v -0.34999999403953552 0.5 0.5
v -0.34999999403953552 0.55000001192092896 -0.5
v -0.34999999403953552 0.55000001192092896 0.5
v -0.34999999403953552 0.55000001192092896 -0.5
v -0.34999999403953552 0.55000001192092896 0.5
v -0.5 0.55000001192092896 -0.5
v -0.5 0.55000001192092896 0.5
v -0.5 0.55000001192092896 -0.5
v -0.5 0.55000001192092896 0.5
v -0.5 0.5 -0.5
v -0.5 0.5 0.5
v -0.5 0.5 -0.5
v -0.34999999403953552 0.5 -0.5
v -0.34999999403953552 0.55000001192092896 -0.5
v -0.5 0.55000001192092896 -0.5
v -0.5 0.5 0.5
v -0.34999999403953552 0.5 0.5
v -0.34999999403953552 0.55000001192092896 0.5
v -0.5 0.55000001192092896 0.5
vt 0 0
vt 0 1
vt 0.29999974370002747 0
vt 0.29999974370002747 1
vt 0.29999974370002747 0
vt 0.29999974370002747 1
vt 0.44999960064888 0
vt 0.44999960064888 1
vt 0.44999960064888 0
vt 0.44999960064888 1
vt 0.74999934434890747 0
vt 0.74999934434890747 1
vt 0.74999934434890747 0
vt 0.74999934434890747 1
vt 0.89999920129776001 0
vt 0.89999920129776001 1
vt 1 0.15000000596046448
vt 1 0
vt 0.90000009536743164 0
vt 0.90000009536743164 0.15000000596046448
vt 1 0.85000002384185791
vt 1 1
vt 0.90000009536743164 1
vt 0.90000009536743164 0.85000002384185791
vn 0 -1 0
vn 0 -1 0
vn 0 -1 0
vn 0 -1 0
vn 1 0 0
vn 1 0 0
vn 1 0 0
vn 1 0 0
vn 0 1 0
vn 0 1 0
vn 0 1 0
vn 0 1 0
vn -1 0 0
vn -1 0 0
vn -1 0 0
vn -1 0 0
vn 0 0 -1
vn 0 0 -1
vn 0 0 -1
vn 0 0 -1
vn 0 0 1
vn 0 0 1
vn 0 0 1
vn 0 0 1
f 185/185/185 187/187/187 188/188/188 186/186/186
f 189/189/189 191/191/191 192/192/192 190/190/190
f 193/193/193 195/195/195 196/196/196 194/194/194
f 197/197/197 199/199/199 200/200/200 198/198/198
f 202/202/202 201/201/201 204/204/204
f 204/204/204 203/203/203 202/202/202
f 206/206/206 208/208/208 205/205/205
f 208/208/208 206/206/206 207/207/207
usemtl diffuse_0
v 0.34999999403953552 0.5 -0.5
v 0.34999999403953552 0.5 0.5
v 0.5 0.5 -0.5
v 0.5 0.5 0.5
v 0.5 0.5 -0.5
v 0.5 0.5 0.5
v 0.5 0.55000001192092896 -0.5
v 0.5 0.55000001192092896 0.5
v 0.5 0.55000001192092896 -0.5
v 0.5 0.55000001192092896 0.5
v 0.34999999403953552 0.55000001192092896 -0.5
v 0.34999999403953552 0.55000001192092896 0.5
v 0.34999999403953552 0.55000001192092896 -0.5
v 0.34999999403953552 0.55000001192092896 0.5
v 0.34999999403953552 0.5 -0.5
v 0.34999999403953552 0.5 0.5
v 0.34999999403953552 0.5 -0.5
v 0.5 0.5 -0.5
v 0.5 0.55000001192092896 -0.5
v 0.34999999403953552 0.55000001192092896 -0.5
v 0.34999999403953552 0.5 0.5
v 0.5 0.5 0.5
v 0.5 0.55000001192092896 0.5
v 0.34999999403953552 0.55000001192092896 0.5
vt 0 0
vt 0 1
vt 0.29999974370002747 0
vt 0.29999974370002747 1
vt 0.29999974370002747 0
vt 0.29999974370002747 1
vt 0.44999960064888 0
vt 0.44999960064888 1
vt 0.44999960064888 0
vt 0.44999960064888 1
vt 0.74999934434890747 0
vt 0.74999934434890747 1
vt 0.74999934434890747 0
vt 0.74999934434890747 1
vt 0.89999920129776001 0
vt 0.89999920129776001 1
vt 1 0.15000000596046448
vt 1 0
vt 0.90000009536743164 0
vt 0.90000009536743164 0.15000000596046448
vt 1 0.85000002384185791
vt 1 1
vt 0.90000009536743164 1
vt 0.90000009536743164 0.85000002384185791
vn 0 -1 0
vn 0 -1 0
vn 0 -1 0
vn 0 -1 0
vn 1 0 0
vn 1 0 0
vn 1 0 0
vn 1 0 0
vn 0 1 0
vn 0 1 0
vn 0 1 0
vn 0 1 0
vn -1 0 0
vn -1 0 0
vn -1 0 0
vn -1 0 0
vn 0 0 -1
vn 0 0 -1
vn 0 0 -1
vn 0 0 -1
vn 0 0 1
vn 0 0 1
vn 0 0 1
vn 0 0 1
f 209/209/209 211/211/211 212/212/212 210/210/210
f 213/213/213 215/215/215 216/216/216 214/214/214
f 217/217/217 219/219/219 220/220/220 218/218/218
f 221/221/221 223/223/223 224/224/224 222/222/222
f 226/226/226 225/225/225 228/228/228
f 228/228/228 227/227/227 226/226/226
f 230/230/230 232/232/232 229/229/229
f 232/232/232 230/230/230 231/231/231
usemtl diffuse_0
v -0.5 0.5 0.5
v -0.5 -0.5 0.5
v 0.5 0.5 0.5
v 0.5 -0.5 0.5
vt 0 0
vt 0 1
vt 1 0
vt 1 1
vn 0 0 -1
vn 0 0 -1
vn 0 0 -1
vn 0 0 -1
f 236/236/236 234/234/234 233/233/233 235/235/235
usemtl diffuse_0
v 0.5 0.5 0.5
v -0.5 0.5 0.5
v 0.5 -0.5 0.5
v -0.5 -0.5 0.5
vt 0 0
vt 0 1
vt 1 0
vt 1 1
vn 0 0 -1
vn 0 0 -1
vn 0 0 -1
vn 0 0 -1
f 240/240/240 238/238/238 237/237/237 239/239/239
usemtl diffuse_0
v 0.3499999880792567 0.55000001192099734 0.49999999999706224
v 0.049999988079256652 0.55000001192099734 0.49999999999706224
cstype bspline
deg 1
curv 0 0.30000000000000004 241 242
parm u 0 0 0.30000000000000004 0.30000000000000004
end
usemtl diffuse_0
v -0.49999999999974587 0.50000000000025446 0.49999999999680844
v -0.39999999999974589 0.50000000000025446 0.49999999999678291
v -0.34999999999974585 0.50000000000025446 0.49999999999677025
v -0.24999999999974584 0.50000000000025446 0.49999999999674472
v -0.19999999999974585 0.50000000000025446 0.49999999999673206
v -0.09999999999974582 0.50000000000025457 0.49999999999670652
v -0.049999999999745838 0.50000000000025457 0.49999999999669387
v 0.050000000000254202 0.50000000000025457 0.49999999999666844
v 0.10000000000025425 0.50000000000025457 0.49999999999665568
v 0.2000000000002542 0.50000000000025457 0.49999999999663014
v 0.25000000000025424 0.50000000000025457 0.49999999999661748
v 0.35000000000025422 0.50000000000025457 0.49999999999659206
v 0.40000000000025426 0.50000000000025469 0.49999999999657929
v 0.50000000000025413 0.50000000000025469 0.49999999999655376
cstype bspline
deg 1
curv 0 0.5 243 244 245 246 247 248 249 250 251 252 253 254 255 256
parm u 0 0 0.050000000000000003 0.075000000000000011 0.125 0.14999999999999999 0.20000000000000001 0.22500000000000001 0.27500000000000002 0.30000000000000004 0.35000000000000003 0.37500000000000006 0.42500000000000004 0.45000000000000007 0.5 0.5
end
usemtl diffuse_0
v -0.49999999999974587 0.50000000000025446 0.49999999999680844
v -0.39999999999974589 0.50000000000025446 0.49999999999678291
v -0.34999999999974585 0.50000000000025446 0.49999999999677025
v -0.24999999999974584 0.50000000000025446 0.49999999999674472
v -0.19999999999974585 0.50000000000025446 0.49999999999673206
v -0.09999999999974582 0.50000000000025457 0.49999999999670652
v -0.049999999999745838 0.50000000000025457 0.49999999999669387
v 0.050000000000254202 0.50000000000025457 0.49999999999666844
v 0.10000000000025425 0.50000000000025457 0.49999999999665568
v 0.2000000000002542 0.50000000000025457 0.49999999999663014
v 0.25000000000025424 0.50000000000025457 0.49999999999661748
v 0.35000000000025422 0.50000000000025457 0.49999999999659206
v 0.40000000000025426 0.50000000000025469 0.49999999999657929
v 0.50000000000025413 0.50000000000025469 0.49999999999655376
cstype bspline
deg 1
curv 0 0.5 257 258 259 260 261 262 263 264 265 266 267 268 269 270
parm u 0 0 0.050000000000000003 0.075000000000000011 0.125 0.14999999999999999 0.20000000000000001 0.22500000000000001 0.27500000000000002 0.30000000000000004 0.35000000000000003 0.37500000000000006 0.42500000000000004 0.45000000000000007 0.5 0.5
end
